<svg xmlns="http://www.w3.org/2000/svg" id="sprotty_root" class="sprotty-graph sprotty-state-machine statemachine" style="border-block-end-color:rgb(204, 204, 204);border-block-start-color:rgb(204, 204, 204);border-bottom-color:rgb(204, 204, 204);border-inline-end-color:rgb(204, 204, 204);border-inline-start-color:rgb(204, 204, 204);border-left-color:rgb(204, 204, 204);border-right-color:rgb(204, 204, 204);border-top-color:rgb(204, 204, 204);caret-color:rgb(204, 204, 204);color:rgb(204, 204, 204);column-rule-color:rgb(204, 204, 204);font-family:&quot;Noto Sans&quot;, Helvetica, Arial, sans-serif;font-size:13px;outline-color:rgb(204, 204, 204);perspective-origin:0px 0px;scrollbar-color:rgba(121, 121, 121, 0.4) rgb(31, 31, 31);text-decoration:none solid rgb(204, 204, 204);text-decoration-color:rgb(204, 204, 204);text-emphasis-color:rgb(204, 204, 204);transform-origin:0px 0px;-webkit-locale:&quot;en&quot;;-webkit-text-fill-color:rgb(204, 204, 204);-webkit-text-stroke-color:rgb(204, 204, 204);" version="1.1" viewBox="10 10 1473.381549835205 537.5264300664267" width="1473.381549835205" height="537.5264300664267"><g transform="scale(1) translate(0,0)"><g id="sprotty_fsm$read_cr" class="statemachine" transform="translate(15, 15)"><g class="sprotty-block" style="fill:rgb(255, 255, 255);stroke:rgb(48, 48, 48);stroke-dasharray:0px;"><rect x="0" y="0" rx="1" ry="1" width="1463.381549835205" height="527.5264300664267"/><text x="731.6907749176025" y="12" class="sprotty-block-name" style="cursor:pointer;dominant-baseline:middle;fill:rgb(48, 48, 48);font-size:16px;font-weight:700;perspective-origin:253.906px 7.21875px;stroke:rgba(0, 0, 0, 0);text-anchor:middle;">read_cr</text><line x1="0" y1="20" x2="1463.381549835205" y2="20"/></g><g id="sprotty_fsm$read_cr/state$read_idle_st" class="state" transform="translate(542.2037925720215, 36)"><ellipse cx="52.509307861328125" cy="20" rx="52.509307861328125" ry="20" class="sprotty-node clickable" style="fill:rgb(255, 255, 255);stroke:rgb(48, 48, 48);"/><text class="clickable sprotty-label state" id="sprotty_fsm$read_cr/state$read_idle_st/label" transform="translate(6, 8) translate(46.192710876464844, 18.666667938232422)" style="cursor:default;fill:rgb(48, 48, 48);font-size:16px;perspective-origin:15.3958px 1.77083px;text-anchor:middle;">read_idle_st</text></g><g id="sprotty_fsm$read_cr/state$read_wait4fedge_st" class="state" transform="translate(469.9331703186035, 196.97335586547854)"><ellipse cx="79.85328674316406" cy="20" rx="79.85328674316406" ry="20" class="sprotty-node clickable" style="fill:rgb(255, 255, 255);stroke:rgb(48, 48, 48);"/><text class="clickable sprotty-label state" id="sprotty_fsm$read_cr/state$read_wait4fedge_st/label" transform="translate(6, 8) translate(73.53646087646484, 18.666667938232422)" style="cursor:default;fill:rgb(48, 48, 48);font-size:16px;perspective-origin:24.5104px 1.77083px;text-anchor:middle;">read_wait4fedge_st</text></g><g id="sprotty_fsm$read_cr/state$read_load_st" class="state" transform="translate(210.85104115804035, 368.56759414672854)"><ellipse cx="55.109310150146484" cy="20" rx="55.109310150146484" ry="20" class="sprotty-node clickable" style="fill:rgb(255, 255, 255);stroke:rgb(48, 48, 48);"/><text class="clickable sprotty-label state" id="sprotty_fsm$read_cr/state$read_load_st/label" transform="translate(6, 8) translate(48.796875, 18.666667938232422)" style="cursor:default;fill:rgb(48, 48, 48);font-size:16px;perspective-origin:16.2604px 1.77083px;text-anchor:middle;">read_load_st</text></g><g id="sprotty_fsm$read_cr/state$read_add_incr_st" class="state" transform="translate(229.95770072937006, 475.5264300664266)"><ellipse cx="71.8052978515625" cy="20" rx="71.8052978515625" ry="20" class="sprotty-node clickable" style="fill:rgb(255, 255, 255);stroke:rgb(48, 48, 48);"/><text class="clickable sprotty-label state" id="sprotty_fsm$read_cr/state$read_add_incr_st/label" transform="translate(6, 8) translate(65.48958587646484, 18.666667938232422)" style="cursor:default;fill:rgb(48, 48, 48);font-size:16px;perspective-origin:21.8229px 1.77083px;text-anchor:middle;">read_add_incr_st</text></g><g id="sprotty_fsm$read_cr/state$read_read_st" class="state" transform="translate(1340.5229377746582, 196.97335586547854)"><ellipse cx="55.42930603027344" cy="20" rx="55.42930603027344" ry="20" class="sprotty-node clickable" style="fill:rgb(255, 255, 255);stroke:rgb(48, 48, 48);"/><text class="clickable sprotty-label state" id="sprotty_fsm$read_cr/state$read_read_st/label" transform="translate(6, 8) translate(49.114585876464844, 18.666667938232422)" style="cursor:default;fill:rgb(48, 48, 48);font-size:16px;perspective-origin:16.3646px 1.77083px;text-anchor:middle;">read_read_st</text></g><g id="sprotty_fsm$read_cr/state$read_read_ack_st" class="state" transform="translate(944.8946952819824, 272.35893758138025)"><ellipse cx="72.90129852294922" cy="20" rx="72.90129852294922" ry="20" class="sprotty-node clickable" style="fill:rgb(255, 255, 255);stroke:rgb(48, 48, 48);"/><text class="clickable sprotty-label state" id="sprotty_fsm$read_cr/state$read_read_ack_st/label" transform="translate(6, 8) translate(66.58854675292969, 18.666667938232422)" style="cursor:default;fill:rgb(48, 48, 48);font-size:16px;perspective-origin:22.1875px 1.77083px;text-anchor:middle;">read_read_ack_st</text></g><g id="sprotty_fsm$read_cr/state$read_idle_st_to_fsm$read_cr/state$read_wait4fedge_st" class="sprotty-edge transition" style="fill:none;stroke:rgb(48, 48, 48);stroke-linejoin:round;"><g><path d=" M584.211238861084,76 C549.7864570617676,114.48667793273927 549.7864570617676,133.73001689910888 549.7864570617676,146.18501971562705 C549.7864570617676,158.64002253214522 549.7864570617676,164.30668919881185 549.7864570617676,171.39002253214517 C549.7864570617676,178.47335586547854 549.7864570617676,186.97335586547854 549.7864570617676,196.97335586547854"/><path d=" M584.211238861084,76 C549.7864570617676,114.48667793273927 549.7864570617676,133.73001689910888 549.7864570617676,146.18501971562705 C549.7864570617676,158.64002253214522 549.7864570617676,164.30668919881185 549.7864570617676,171.39002253214517 C549.7864570617676,178.47335586547854 549.7864570617676,186.97335586547854 549.7864570617676,196.97335586547854" class="clickable"/></g><path d="M 549.7864570617676,196.97335586547854 L 556.7864570617676,194.47335586547854 L 556.7864570617676,199.47335586547854 Z" transform="rotate(-90 549.7864570617676 196.97335586547854)" class="arrow" style="fill:rgb(48, 48, 48);stroke-linejoin:miter;stroke-miterlimit:2;"/><text class="clickable sprotty-label transition" id="sprotty_fsm$read_cr/state$read_idle_st_to_fsm$read_cr/state$read_wait4fedge_st/label0" transform="translate(327.7031135559082, 152.97335586547854) translate(108.04167175292969, 18.666667938232422)" style="cursor:default;fill:rgb(48, 48, 48);font-size:16px;perspective-origin:36.0104px 1.77083px;stroke:none;text-anchor:middle;">read_inp_r.b_data_valid = '1'</text></g><g id="sprotty_fsm$read_cr/state$read_idle_st_to_fsm$read_cr/state$read_read_st" class="sprotty-edge transition" style="fill:none;stroke:rgb(48, 48, 48);stroke-linejoin:round;"><g><path d=" M626.2186851501465,76 C1395.9522438049316,114.48667793273927 1395.9522438049316,133.73001689910888 1395.9522438049316,146.18501971562705 C1395.9522438049316,158.64002253214522 1395.9522438049316,164.30668919881185 1395.9522438049316,171.39002253214517 C1395.9522438049316,178.47335586547854 1395.9522438049316,186.97335586547854 1395.9522438049316,196.97335586547854"/><path d=" M626.2186851501465,76 C1395.9522438049316,114.48667793273927 1395.9522438049316,133.73001689910888 1395.9522438049316,146.18501971562705 C1395.9522438049316,158.64002253214522 1395.9522438049316,164.30668919881185 1395.9522438049316,171.39002253214517 C1395.9522438049316,178.47335586547854 1395.9522438049316,186.97335586547854 1395.9522438049316,196.97335586547854" class="clickable"/></g><path d="M 1395.9522438049316,196.97335586547854 L 1402.9522438049316,194.47335586547854 L 1402.9522438049316,199.47335586547854 Z" transform="rotate(-90 1395.9522438049316 196.97335586547854)" class="arrow" style="fill:rgb(48, 48, 48);stroke-linejoin:miter;stroke-miterlimit:2;"/><text class="clickable sprotty-label transition" id="sprotty_fsm$read_cr/state$read_idle_st_to_fsm$read_cr/state$read_read_st/label0" transform="translate(650.6397438049316, 152.97335586547854) translate(369.65625, 18.666667938232422)" style="cursor:default;fill:rgb(48, 48, 48);font-size:16px;perspective-origin:123.219px 1.77083px;stroke:none;text-anchor:middle;">read_inp_r.b_we_ipb = '0' AND read_inp_r.b_stb_ipb = '1' AND read_inp_r.b_addr_ipb = citiroc_ram</text></g><g id="sprotty_fsm$read_cr/state$read_wait4fedge_st_to_fsm$read_cr/state$read_load_st" class="sprotty-edge transition" style="fill:none;stroke:rgb(48, 48, 48);stroke-linejoin:round;"><g><path d=" M523.1686948140461,236.97335586547854 C526.4166870117188,254.6661467234294 526.4166870117188,263.5125421524048 526.4166870117188,273.9357398668925 C526.4166870117188,284.35893758138025 526.4166870117188,296.35893758138025 526.4166870117188,308.35893758138025 C526.4166870117188,320.35893758138025 526.4166870117188,332.35893758138025 526.4166870117188,341.38501965204875 C526.4166870117188,350.4111017227173 526.4166870117188,356.4632658640544 284.33012135823566,368.56759414672854"/><path d=" M523.1686948140461,236.97335586547854 C526.4166870117188,254.6661467234294 526.4166870117188,263.5125421524048 526.4166870117188,273.9357398668925 C526.4166870117188,284.35893758138025 526.4166870117188,296.35893758138025 526.4166870117188,308.35893758138025 C526.4166870117188,320.35893758138025 526.4166870117188,332.35893758138025 526.4166870117188,341.38501965204875 C526.4166870117188,350.4111017227173 526.4166870117188,356.4632658640544 284.33012135823566,368.56759414672854" class="clickable"/></g><path d="M 284.33012135823566,368.56759414672854 L 291.33012135823566,366.06759414672854 L 291.33012135823566,371.06759414672854 Z" transform="rotate(-2.862405226111746 284.33012135823566 368.56759414672854)" class="arrow" style="fill:rgb(48, 48, 48);stroke-linejoin:miter;stroke-miterlimit:2;"/><text class="clickable sprotty-label transition" id="sprotty_fsm$read_cr/state$read_wait4fedge_st_to_fsm$read_cr/state$read_load_st/label1" transform="translate(83.92709350585938, 296.35893758138025) translate(218.2447967529297, 18.666667938232422)" style="cursor:default;fill:rgb(48, 48, 48);font-size:16px;perspective-origin:72.7396px 1.77083px;stroke:none;text-anchor:middle;">read_inp_r.b_clk_for_sr = '0' AND read_inp_r.b_detect = '1'</text><text class="clickable sprotty-label transition" id="sprotty_fsm$read_cr/state$read_wait4fedge_st_to_fsm$read_cr/state$read_load_st/label0" transform="translate(23, 272.35893758138025) translate(248.70834350585938, 18.666667938232422)" style="cursor:default;fill:rgb(48, 48, 48);font-size:16px;perspective-origin:82.8958px 1.77083px;stroke:none;text-anchor:middle;">read_inp_r.b_data_valid = '1' or read_inp_r.b_prev_data_valid = '1'</text><text class="clickable sprotty-label transition" id="sprotty_fsm$read_cr/state$read_wait4fedge_st_to_fsm$read_cr/state$read_load_st/label2" transform="translate(349.91668701171875, 320.35893758138025) translate(85.25, 18.666667938232422)" style="cursor:default;fill:rgb(48, 48, 48);font-size:16px;perspective-origin:28.4167px 1.77083px;stroke:none;text-anchor:middle;">read_cr.b_readcnt = 31</text></g><g id="sprotty_fsm$read_cr/state$read_load_st_to_fsm$read_cr/state$read_add_incr_st" class="sprotty-edge transition" style="fill:none;stroke:rgb(48, 48, 48);stroke-linejoin:round;"><g><path d=" M265.96035130818683,408.56759414672854 C265.96035130818683,418.56759414672854 265.9603513081869,427.0675941467285 265.9603513081869,434.1509274800618 C265.96035130818683,441.2342608133952 265.9603513081869,446.90092748006185 265.9603513081869,452.60411530335745 C265.9603513081869,458.30730312665304 265.96035130818683,464.04701210657754 277.8278992970784,475.5264300664266"/><path d=" M265.96035130818683,408.56759414672854 C265.96035130818683,418.56759414672854 265.9603513081869,427.0675941467285 265.9603513081869,434.1509274800618 C265.96035130818683,441.2342608133952 265.9603513081869,446.90092748006185 265.9603513081869,452.60411530335745 C265.9603513081869,458.30730312665304 265.96035130818683,464.04701210657754 277.8278992970784,475.5264300664266" class="clickable"/></g><path d="M 277.8278992970784,475.5264300664266 L 284.8278992970784,473.0264300664266 L 284.8278992970784,478.0264300664266 Z" transform="rotate(-135.952422009949 277.8278992970784 475.5264300664266)" class="arrow" style="fill:rgb(48, 48, 48);stroke-linejoin:miter;stroke-miterlimit:2;"/><text class="clickable sprotty-label transition" id="sprotty_fsm$read_cr/state$read_load_st_to_fsm$read_cr/state$read_add_incr_st/label0" transform="translate(43.877007802327455, 428.56759414672854) translate(108.04167175292969, 18.666667938232422)" style="cursor:default;fill:rgb(48, 48, 48);font-size:16px;perspective-origin:36.0104px 1.77083px;stroke:none;text-anchor:middle;">read_inp_r.b_data_valid = '1'</text></g><g id="sprotty_fsm$read_cr/state$read_load_st_to_fsm$read_cr/state$read_idle_st" class="sprotty-edge transition" style="fill:none;stroke:rgb(48, 48, 48);stroke-linejoin:round;"><g><path d=" M247.590581258138,368.56759414672854 C12,356.4632658640544 12,350.4111017227173 12,339.9106204138862 C12,329.41013910505507 12,314.46134062872994 12,299.5125421524048 C12,284.56374367607964 12,269.6149451997545 12,250.85841415193346 C12,232.10188310411243 12,209.53761948479547 12,195.42215434180366 C12,181.30668919881185 12,175.64002253214522 12,169.97335586547854 C12,164.30668919881188 12,158.6400225321452 12,146.18501971562705 C12,133.7300168991089 12,114.48667793273927 563.2075157165527,76"/><path d=" M247.590581258138,368.56759414672854 C12,356.4632658640544 12,350.4111017227173 12,339.9106204138862 C12,329.41013910505507 12,314.46134062872994 12,299.5125421524048 C12,284.56374367607964 12,269.6149451997545 12,250.85841415193346 C12,232.10188310411243 12,209.53761948479547 12,195.42215434180366 C12,181.30668919881185 12,175.64002253214522 12,169.97335586547854 C12,164.30668919881188 12,158.6400225321452 12,146.18501971562705 C12,133.7300168991089 12,114.48667793273927 563.2075157165527,76" class="clickable"/></g><path d="M 563.2075157165527,76 L 570.2075157165527,73.5 L 570.2075157165527,78.5 Z" transform="rotate(176.0059485089095 563.2075157165527 76)" class="arrow" style="fill:rgb(48, 48, 48);stroke-linejoin:miter;stroke-miterlimit:2;"/></g><g id="sprotty_fsm$read_cr/state$read_add_incr_st_to_fsm$read_cr/state$read_wait4fedge_st" class="sprotty-edge transition" style="fill:none;stroke:rgb(48, 48, 48);stroke-linejoin:round;"><g><path d=" M325.69809786478675,475.5264300664266 C555.2864570617676,464.04701210657754 555.2864570617676,458.307303126653 555.2864570617676,452.6041153033574 C555.2864570617676,446.90092748006185 555.2864570617676,441.23426081339517 555.2864570617676,435.56759414672854 C555.2864570617676,429.9009274800619 555.2864570617676,424.2342608133952 555.2864570617676,411.0502060996162 C555.2864570617676,397.86615138583716 555.2864570617676,377.1647086249457 555.2864570617676,359.8052932209438 C555.2864570617676,342.44587781694196 555.2864570617676,328.42848976982964 555.2864570617676,314.41110172271726 C555.2864570617676,300.3937136756049 555.2864570617676,286.3763256284926 555.2864570617676,274.94443389044864 C555.2864570617676,263.51254215240476 555.2864570617676,254.6661467234294 576.4042193094889,236.97335586547854"/><path d=" M325.69809786478675,475.5264300664266 C555.2864570617676,464.04701210657754 555.2864570617676,458.307303126653 555.2864570617676,452.6041153033574 C555.2864570617676,446.90092748006185 555.2864570617676,441.23426081339517 555.2864570617676,435.56759414672854 C555.2864570617676,429.9009274800619 555.2864570617676,424.2342608133952 555.2864570617676,411.0502060996162 C555.2864570617676,397.86615138583716 555.2864570617676,377.1647086249457 555.2864570617676,359.8052932209438 C555.2864570617676,342.44587781694196 555.2864570617676,328.42848976982964 555.2864570617676,314.41110172271726 C555.2864570617676,300.3937136756049 555.2864570617676,286.3763256284926 555.2864570617676,274.94443389044864 C555.2864570617676,263.51254215240476 555.2864570617676,254.6661467234294 576.4042193094889,236.97335586547854" class="clickable"/></g><path d="M 576.4042193094889,236.97335586547854 L 583.4042193094889,234.47335586547854 L 583.4042193094889,239.47335586547854 Z" transform="rotate(140.04319936526974 576.4042193094889 236.97335586547854)" class="arrow" style="fill:rgb(48, 48, 48);stroke-linejoin:miter;stroke-miterlimit:2;"/></g><g id="sprotty_fsm$read_cr/state$read_read_st_to_fsm$read_cr/state$read_read_ack_st" class="sprotty-edge transition" style="fill:none;stroke:rgb(48, 48, 48);stroke-linejoin:round;"><g><path d=" M1395.9522438049316,236.97335586547854 C1395.9522438049316,236.97335586547854 1360.56666208903,254.6661467234294 1042.0964266459148,272.35893758138025"/><path d=" M1395.9522438049316,236.97335586547854 C1395.9522438049316,236.97335586547854 1360.56666208903,254.6661467234294 1042.0964266459148,272.35893758138025" class="clickable"/></g><path d="M 1042.0964266459148,272.35893758138025 L 1049.0964266459148,269.85893758138025 L 1049.0964266459148,274.85893758138025 Z" transform="rotate(-3.1798301198642367 1042.0964266459148 272.35893758138025)" class="arrow" style="fill:rgb(48, 48, 48);stroke-linejoin:miter;stroke-miterlimit:2;"/></g><g id="sprotty_fsm$read_cr/state$read_read_ack_st_to_fsm$read_cr/state$read_idle_st" class="sprotty-edge transition" style="fill:none;stroke:rgb(48, 48, 48);stroke-linejoin:round;"><g><path d=" M993.4955609639486,272.35893758138025 C639.6397438049316,254.6661467234294 639.6397438049316,245.819751294454 639.6397438049316,233.06322024663294 C639.6397438049316,220.30668919881188 639.6397438049316,203.6400225321452 639.6397438049316,192.47335586547854 C639.6397438049316,181.30668919881185 639.6397438049316,175.6400225321452 639.6397438049316,169.9733558654785 C639.6397438049316,164.30668919881185 639.6397438049316,158.6400225321452 639.6397438049316,146.18501971562705 C639.6397438049316,133.7300168991089 639.6397438049316,114.48667793273927 605.2149620056152,76"/><path d=" M993.4955609639486,272.35893758138025 C639.6397438049316,254.6661467234294 639.6397438049316,245.819751294454 639.6397438049316,233.06322024663294 C639.6397438049316,220.30668919881188 639.6397438049316,203.6400225321452 639.6397438049316,192.47335586547854 C639.6397438049316,181.30668919881185 639.6397438049316,175.6400225321452 639.6397438049316,169.9733558654785 C639.6397438049316,164.30668919881185 639.6397438049316,158.6400225321452 639.6397438049316,146.18501971562705 C639.6397438049316,133.7300168991089 639.6397438049316,114.48667793273927 605.2149620056152,76" class="clickable"/></g><path d="M 605.2149620056152,76 L 612.2149620056152,73.5 L 612.2149620056152,78.5 Z" transform="rotate(48.18865082222375 605.2149620056152 76)" class="arrow" style="fill:rgb(48, 48, 48);stroke-linejoin:miter;stroke-miterlimit:2;"/></g></g></g></svg>