<?xml version="1.0" encoding="UTF-8" standalone="no"?>
<svg
   id="sprotty_root"
   class="sprotty-graph sprotty-state-machine statemachine"
   style="border-block-end-color:rgb(204, 204, 204);border-block-start-color:rgb(204, 204, 204);border-bottom-color:rgb(204, 204, 204);border-inline-end-color:rgb(204, 204, 204);border-inline-start-color:rgb(204, 204, 204);border-left-color:rgb(204, 204, 204);border-right-color:rgb(204, 204, 204);border-top-color:rgb(204, 204, 204);caret-color:rgb(204, 204, 204);color:rgb(204, 204, 204);column-rule-color:rgb(204, 204, 204);font-family:&quot;Noto Sans&quot;, Helvetica, Arial, sans-serif;font-size:13px;outline-color:rgb(204, 204, 204);perspective-origin:0px 0px;scrollbar-color:rgba(121, 121, 121, 0.4) rgb(31, 31, 31);text-decoration:none solid rgb(204, 204, 204);text-decoration-color:rgb(204, 204, 204);text-emphasis-color:rgb(204, 204, 204);transform-origin:0px 0px;-webkit-locale:&quot;en&quot;;-webkit-text-fill-color:rgb(204, 204, 204);-webkit-text-stroke-color:rgb(204, 204, 204);"
   version="1.1"
   viewBox="10 10 2384.53475189209 936.6555830319722"
   width="2384.53475189209"
   height="936.6555830319722"
   sodipodi:docname="CONFIGBIGdiagram.svg"
   inkscape:export-filename="CONFIGBIGdiagram.jpg"
   inkscape:export-xdpi="96"
   inkscape:export-ydpi="96"
   inkscape:version="1.4 (86a8ad7, 2024-10-11)"
   xmlns:inkscape="http://www.inkscape.org/namespaces/inkscape"
   xmlns:sodipodi="http://sodipodi.sourceforge.net/DTD/sodipodi-0.dtd"
   xmlns="http://www.w3.org/2000/svg"
   xmlns:svg="http://www.w3.org/2000/svg">
  <defs
     id="defs66" />
  <sodipodi:namedview
     id="namedview66"
     pagecolor="#ffffff"
     bordercolor="#000000"
     borderopacity="0.25"
     inkscape:showpageshadow="2"
     inkscape:pageopacity="0.0"
     inkscape:pagecheckerboard="0"
     inkscape:deskcolor="#d1d1d1"
     inkscape:zoom="1.546633"
     inkscape:cx="967.58572"
     inkscape:cy="468.43692"
     inkscape:window-width="3840"
     inkscape:window-height="2066"
     inkscape:window-x="-11"
     inkscape:window-y="-11"
     inkscape:window-maximized="1"
     inkscape:current-layer="sprotty_root" />
  <g
     transform="scale(1) translate(0,0)"
     id="g66">
    <g
       id="sprotty_fsm$cr"
       class="statemachine"
       transform="translate(15, 15)">
      <g
         class="sprotty-block"
         style="fill:rgb(255, 255, 255);stroke:rgb(48, 48, 48);stroke-dasharray:0px;"
         id="g1">
        <rect
           x="0"
           y="0"
           rx="1"
           ry="1"
           width="2374.53475189209"
           height="926.6555830319722"
           id="rect1" />
        <text
           x="1187.2673"
           y="12"
           class="sprotty-block-name"
           style="font-weight:700;font-size:16px;dominant-baseline:middle;text-anchor:middle;fill:#303030"
           id="text1">Configuration state machine</text>
        <line
           x1="0"
           y1="20"
           x2="2374.53475189209"
           y2="20"
           id="line1" />
      </g>
      <g
         id="sprotty_fsm$cr/state$idle_st"
         class="state"
         transform="translate(1071.0711822509766, 36)">
        <ellipse
           cx="45"
           cy="20"
           rx="45"
           ry="20"
           class="sprotty-node clickable"
           style="fill:rgb(255, 255, 255);stroke:rgb(48, 48, 48);"
           id="ellipse1" />
        <text
           class="clickable sprotty-label state"
           id="sprotty_fsm$cr/state$idle_st/label"
           transform="translate(19.75467872619629, 8) translate(24.932292938232422, 18.666667938232422)"
           style="cursor:default;fill:rgb(48, 48, 48);font-size:16px;perspective-origin:6.9184px 1.38889px;text-anchor:middle;">idle_st</text>
      </g>
      <g
         id="sprotty_fsm$cr/state$reset_st"
         class="state"
         transform="translate(970.8698215484618, 234.01729927062985)">
        <ellipse
           cx="35.92531394958496"
           cy="20"
           rx="35.92531394958496"
           ry="20"
           class="sprotty-node clickable"
           style="fill:rgb(255, 255, 255);stroke:rgb(48, 48, 48);"
           id="ellipse2" />
        <text
           class="clickable sprotty-label state"
           id="sprotty_fsm$cr/state$reset_st/label"
           transform="translate(6, 8) translate(29.609375, 18.666667938232422)"
           style="cursor:default;fill:rgb(48, 48, 48);font-size:16px;perspective-origin:8.22049px 1.38889px;text-anchor:middle;">reset_st</text>
      </g>
      <g
         id="sprotty_fsm$cr/state$read_st"
         class="state"
         transform="translate(576.3277225494385, 234.01729927062985)">
        <ellipse
           cx="34.16531944274902"
           cy="20"
           rx="34.16531944274902"
           ry="20"
           class="sprotty-node clickable"
           style="fill:rgb(255, 255, 255);stroke:rgb(48, 48, 48);"
           id="ellipse3" />
        <text
           class="clickable sprotty-label state"
           id="sprotty_fsm$cr/state$read_st/label"
           transform="translate(6, 8) translate(27.84895896911621, 18.666667938232422)"
           style="cursor:default;fill:rgb(48, 48, 48);font-size:16px;perspective-origin:7.73438px 1.38889px;text-anchor:middle;">read_st</text>
      </g>
      <g
         id="sprotty_fsm$cr/state$read_ack_st"
         class="state"
         transform="translate(259.6092109680176, 302.2207077026367)">
        <ellipse
           cx="51.63731002807617"
           cy="20"
           rx="51.63731002807617"
           ry="20"
           class="sprotty-node clickable"
           style="fill:rgb(255, 255, 255);stroke:rgb(48, 48, 48);"
           id="ellipse4" />
        <text
           class="clickable sprotty-label state"
           id="sprotty_fsm$cr/state$read_ack_st/label"
           transform="translate(6, 8) translate(45.32291793823242, 18.666667938232422)"
           style="cursor:default;fill:rgb(48, 48, 48);font-size:16px;perspective-origin:12.5868px 1.38889px;text-anchor:middle;">read_ack_st</text>
      </g>
      <g
         id="sprotty_fsm$cr/state$write_st"
         class="state"
         transform="translate(2254.4895248413086, 234.01729927062985)">
        <ellipse
           cx="36.7546501159668"
           cy="20"
           rx="36.7546501159668"
           ry="20"
           class="sprotty-node clickable"
           style="fill:rgb(255, 255, 255);stroke:rgb(48, 48, 48);"
           id="ellipse5" />
        <text
           class="clickable sprotty-label state"
           id="sprotty_fsm$cr/state$write_st/label"
           transform="translate(6, 8) translate(30.77083396911621, 18.666667938232422)"
           style="cursor:default;fill:rgb(48, 48, 48);font-size:16px;perspective-origin:8.35938px 1.38889px;text-anchor:middle;">write_st</text>
      </g>
      <g
         id="sprotty_fsm$cr/state$load_st"
         class="state"
         transform="translate(1591.2831649780271, 302.2207077026367)">
        <ellipse
           cx="33.84532165527344"
           cy="20"
           rx="33.84532165527344"
           ry="20"
           class="sprotty-node clickable"
           style="fill:rgb(255, 255, 255);stroke:rgb(48, 48, 48);"
           id="ellipse6" />
        <text
           class="clickable sprotty-label state"
           id="sprotty_fsm$cr/state$load_st/label"
           transform="translate(6, 8) translate(27.53125, 18.666667938232422)"
           style="cursor:default;fill:rgb(48, 48, 48);font-size:16px;perspective-origin:7.63889px 1.38889px;text-anchor:middle;">load_st</text>
      </g>
      <g
         id="sprotty_fsm$cr/state$wait4fedge_st"
         class="state"
         transform="translate(1815.3412780761719, 493.15336214701335)">
        <ellipse
           cx="58.922630310058594"
           cy="20"
           rx="58.922630310058594"
           ry="20"
           class="sprotty-node clickable"
           style="fill:rgb(255, 255, 255);stroke:rgb(48, 48, 48);"
           id="ellipse7" />
        <text
           class="clickable sprotty-label state"
           id="sprotty_fsm$cr/state$wait4fedge_st/label"
           transform="translate(6, 8) translate(52.942710876464844, 18.666667938232422)"
           style="cursor:default;fill:rgb(48, 48, 48);font-size:16px;perspective-origin:14.5139px 1.38889px;text-anchor:middle;">wait4fedge_st</text>
      </g>
      <g
         id="sprotty_fsm$cr/state$wait4redge_st"
         class="state"
         transform="translate(1565.7018547058103, 362.2207077026367)">
        <ellipse
           cx="59.426631927490234"
           cy="20"
           rx="59.426631927490234"
           ry="20"
           class="sprotty-node clickable"
           style="fill:rgb(255, 255, 255);stroke:rgb(48, 48, 48);"
           id="ellipse8" />
        <text
           class="clickable sprotty-label state"
           id="sprotty_fsm$cr/state$wait4redge_st/label"
           transform="translate(6, 8) translate(53.442710876464844, 18.666667938232422)"
           style="cursor:default;fill:rgb(48, 48, 48);font-size:16px;perspective-origin:14.6528px 1.38889px;text-anchor:middle;">wait4redge_st</text>
      </g>
      <g
         id="sprotty_fsm$cr/state$shift_st"
         class="state"
         transform="translate(1408.5577224095662, 642.6555830319722)">
        <ellipse
           cx="33.7893180847168"
           cy="20"
           rx="33.7893180847168"
           ry="20"
           class="sprotty-node clickable"
           style="fill:rgb(255, 255, 255);stroke:rgb(48, 48, 48);"
           id="ellipse9" />
        <text
           class="clickable sprotty-label state"
           id="sprotty_fsm$cr/state$shift_st/label"
           transform="translate(6, 8) translate(27.47395896911621, 18.666667938232422)"
           style="cursor:default;fill:rgb(48, 48, 48);font-size:16px;perspective-origin:7.63021px 1.38889px;text-anchor:middle;">shift_st</text>
      </g>
      <g
         id="sprotty_fsm$cr/state$finish_st"
         class="state"
         transform="translate(1403.9923880894978, 746.6555830319722)">
        <ellipse
           cx="38.354652404785156"
           cy="20"
           rx="38.354652404785156"
           ry="20"
           class="sprotty-node clickable"
           style="fill:rgb(255, 255, 255);stroke:rgb(48, 48, 48);"
           id="ellipse10" />
        <text
           class="clickable sprotty-label state"
           id="sprotty_fsm$cr/state$finish_st/label"
           transform="translate(6, 8) translate(32.375, 18.666667938232422)"
           style="cursor:default;fill:rgb(48, 48, 48);font-size:16px;perspective-origin:8.80208px 1.38889px;text-anchor:middle;">finish_st</text>
      </g>
      <g
         id="sprotty_fsm$cr/state$update_st"
         class="state"
         transform="translate(1254.0076643625894, 874.6555830319722)">
        <ellipse
           cx="43.86931610107422"
           cy="20"
           rx="43.86931610107422"
           ry="20"
           class="sprotty-node clickable"
           style="fill:rgb(255, 255, 255);stroke:rgb(48, 48, 48);"
           id="ellipse11" />
        <text
           class="clickable sprotty-label state"
           id="sprotty_fsm$cr/state$update_st/label"
           transform="translate(6, 8) translate(37.552085876464844, 18.666667938232422)"
           style="cursor:default;fill:rgb(48, 48, 48);font-size:16px;perspective-origin:10.4253px 1.38889px;text-anchor:middle;">update_st</text>
      </g>
      <g
         id="sprotty_fsm$cr/state$delay_st"
         class="state"
         transform="translate(1551.9987252553303, 234.01729927062985)">
        <ellipse
           cx="37.72532272338867"
           cy="20"
           rx="37.72532272338867"
           ry="20"
           class="sprotty-node clickable"
           style="fill:rgb(255, 255, 255);stroke:rgb(48, 48, 48);"
           id="ellipse12" />
        <text
           class="clickable sprotty-label state"
           id="sprotty_fsm$cr/state$delay_st/label"
           transform="translate(6, 8) translate(31.41145896911621, 18.666667938232422)"
           style="cursor:default;fill:rgb(48, 48, 48);font-size:16px;perspective-origin:8.72396px 1.38889px;text-anchor:middle;">delay_st</text>
      </g>
      <g
         id="sprotty_fsm$cr/state$write_finish_st"
         class="state"
         transform="translate(1930.123020172119, 302.2207077026367)">
        <ellipse
           cx="61.8746337890625"
           cy="20"
           rx="61.8746337890625"
           ry="20"
           class="sprotty-node clickable"
           style="fill:rgb(255, 255, 255);stroke:rgb(48, 48, 48);"
           id="ellipse13" />
        <text
           class="clickable sprotty-label state"
           id="sprotty_fsm$cr/state$write_finish_st/label"
           transform="translate(6, 8) translate(55.895835876464844, 18.666667938232422)"
           style="cursor:default;fill:rgb(48, 48, 48);font-size:16px;perspective-origin:15.3385px 1.38889px;text-anchor:middle;">write_finish_st</text>
      </g>
      <g
         id="sprotty_fsm$cr/state$idle_st_to_fsm$cr/state$reset_st"
         class="sprotty-edge transition"
         style="fill:none;stroke:rgb(48, 48, 48);stroke-linejoin:round;">
        <g
           id="g14">
          <path
             d=" M1111.0711822509766,76 C1032.2951354980469,133.00864963531492 1032.2951354980469,161.5129744529724 1032.2951354980469,177.76513686180112 C1032.2951354980469,194.01729927062985 1032.2951354980469,198.01729927062985 1032.2951354980469,202.01729927062985 C1032.2951354980469,206.01729927062985 1032.2951354980469,210.01729927062985 1032.2951354980469,214.51729927062985 C1032.2951354980469,219.01729927062985 1032.2951354980469,224.01729927062985 1018.7702401479085,234.01729927062985"
             id="path13" />
          <path
             d=" M1111.0711822509766,76 C1032.2951354980469,133.00864963531492 1032.2951354980469,161.5129744529724 1032.2951354980469,177.76513686180112 C1032.2951354980469,194.01729927062985 1032.2951354980469,198.01729927062985 1032.2951354980469,202.01729927062985 C1032.2951354980469,206.01729927062985 1032.2951354980469,210.01729927062985 1032.2951354980469,214.51729927062985 C1032.2951354980469,219.01729927062985 1032.2951354980469,224.01729927062985 1018.7702401479085,234.01729927062985"
             class="clickable"
             id="path14" />
        </g>
        <path
           d="M 1018.7702401479085,234.01729927062985 L 1025.7702401479085,231.51729927062985 L 1025.7702401479085,236.51729927062985 Z"
           transform="rotate(-36.478378779924356 1018.7702401479085 234.01729927062985)"
           class="arrow"
           style="fill:rgb(48, 48, 48);stroke-linejoin:miter;stroke-miterlimit:2;"
           id="path15" />
        <text
           class="clickable sprotty-label transition"
           id="sprotty_fsm$cr/state$idle_st_to_fsm$cr/state$reset_st/label0"
           transform="translate(1039.2951354980469, 190.01729927062985) translate(75.27604675292969, 18.666667938232422)"
           style="cursor:default;fill:rgb(48, 48, 48);font-size:16px;perspective-origin:20.9028px 1.38889px;stroke:none;text-anchor:middle;">inp_r.reset_stm = '1'</text>
      </g>
      <g
         id="sprotty_fsm$cr/state$idle_st_to_fsm$cr/state$delay_st"
         class="sprotty-edge transition"
         style="fill:none;stroke:rgb(48, 48, 48);stroke-linejoin:round;">
        <g
           id="g17">
          <path
             d=" M1131.0711822509766,76 C1589.724047978719,133.00864963531492 1589.724047978719,161.51297445297237 1589.724047978719,178.59847019513444 C1589.724047978719,195.68396593729653 1589.724047978719,201.35063260396316 1589.724047978719,208.4339659372965 C1589.724047978719,215.51729927062985 1589.724047978719,224.01729927062985 1589.724047978719,234.01729927062985"
             id="path16" />
          <path
             d=" M1131.0711822509766,76 C1589.724047978719,133.00864963531492 1589.724047978719,161.51297445297237 1589.724047978719,178.59847019513444 C1589.724047978719,195.68396593729653 1589.724047978719,201.35063260396316 1589.724047978719,208.4339659372965 C1589.724047978719,215.51729927062985 1589.724047978719,224.01729927062985 1589.724047978719,234.01729927062985"
             class="clickable"
             id="path17" />
        </g>
        <path
           d="M 1589.724047978719,234.01729927062985 L 1596.724047978719,231.51729927062985 L 1596.724047978719,236.51729927062985 Z"
           transform="rotate(-90 1589.724047978719 234.01729927062985)"
           class="arrow"
           style="fill:rgb(48, 48, 48);stroke-linejoin:miter;stroke-miterlimit:2;"
           id="path18" />
        <text
           class="clickable sprotty-label transition"
           id="sprotty_fsm$cr/state$idle_st_to_fsm$cr/state$delay_st/label0"
           transform="translate(1474.2657121022542, 190.01729927062985) translate(54.72916793823242, 18.666667938232422)"
           style="cursor:default;fill:rgb(48, 48, 48);font-size:16px;perspective-origin:15.1997px 1.38889px;stroke:none;text-anchor:middle;">inp_r.load = '1'</text>
      </g>
      <g
         id="sprotty_fsm$cr/state$idle_st_to_fsm$cr/state$read_st"
         class="sprotty-edge transition"
         style="fill:none;stroke:rgb(48, 48, 48);stroke-linejoin:round;">
        <g
           id="g20">
          <path
             d=" M1091.0711822509766,76 C610.4930419921875,133.00864963531492 610.4930419921875,161.51297445297237 610.4930419921875,178.59847019513444 C610.4930419921875,195.68396593729653 610.4930419921874,201.35063260396316 610.4930419921873,208.4339659372965 C610.4930419921874,215.51729927062985 610.4930419921875,224.01729927062985 610.4930419921875,234.01729927062985"
             id="path19" />
          <path
             d=" M1091.0711822509766,76 C610.4930419921875,133.00864963531492 610.4930419921875,161.51297445297237 610.4930419921875,178.59847019513444 C610.4930419921875,195.68396593729653 610.4930419921874,201.35063260396316 610.4930419921873,208.4339659372965 C610.4930419921874,215.51729927062985 610.4930419921875,224.01729927062985 610.4930419921875,234.01729927062985"
             class="clickable"
             id="path20" />
        </g>
        <path
           d="M 610.4930419921875,234.01729927062985 L 617.4930419921875,231.51729927062985 L 617.4930419921875,236.51729927062985 Z"
           transform="rotate(-90 610.4930419921875 234.01729927062985)"
           class="arrow"
           style="fill:rgb(48, 48, 48);stroke-linejoin:miter;stroke-miterlimit:2;"
           id="path21" />
        <text
           class="clickable sprotty-label transition"
           id="sprotty_fsm$cr/state$idle_st_to_fsm$cr/state$read_st/label0"
           transform="translate(23, 190.01729927062985) translate(290.1875, 18.666667938232422)"
           style="cursor:default;fill:rgb(48, 48, 48);font-size:16px;perspective-origin:80.599px 1.38889px;stroke:none;text-anchor:middle;">inp_r.we_ipb = '0' AND inp_r.stb_ipb = '1' AND inp_r.addr_ipb = ram_Reg_Addr</text>
      </g>
      <g
         id="sprotty_fsm$cr/state$idle_st_to_fsm$cr/state$write_st"
         class="sprotty-edge transition"
         style="fill:none;stroke:rgb(48, 48, 48);stroke-linejoin:round;">
        <g
           id="g23">
          <path
             d=" M1151.0711822509766,76 C2291.2441749572754,133.00864963531492 2291.2441749572754,161.51297445297237 2291.2441749572754,178.59847019513444 C2291.2441749572754,195.68396593729653 2291.2441749572754,201.35063260396316 2291.2441749572754,208.4339659372965 C2291.2441749572754,215.51729927062985 2291.2441749572754,224.01729927062985 2291.2441749572754,234.01729927062985"
             id="path22" />
          <path
             d=" M1151.0711822509766,76 C2291.2441749572754,133.00864963531492 2291.2441749572754,161.51297445297237 2291.2441749572754,178.59847019513444 C2291.2441749572754,195.68396593729653 2291.2441749572754,201.35063260396316 2291.2441749572754,208.4339659372965 C2291.2441749572754,215.51729927062985 2291.2441749572754,224.01729927062985 2291.2441749572754,234.01729927062985"
             class="clickable"
             id="path23" />
        </g>
        <path
           d="M 2291.2441749572754,234.01729927062985 L 2298.2441749572754,231.51729927062985 L 2298.2441749572754,236.51729927062985 Z"
           transform="rotate(-90 2291.2441749572754 234.01729927062985)"
           class="arrow"
           style="fill:rgb(48, 48, 48);stroke-linejoin:miter;stroke-miterlimit:2;"
           id="path24" />
        <text
           class="clickable sprotty-label transition"
           id="sprotty_fsm$cr/state$idle_st_to_fsm$cr/state$write_st/label0"
           transform="translate(1703.7511329650877, 190.01729927062985) translate(290.1875, 18.666667938232422)"
           style="cursor:default;fill:rgb(48, 48, 48);font-size:16px;perspective-origin:80.599px 1.38889px;stroke:none;text-anchor:middle;">inp_r.we_ipb = '1' AND inp_r.stb_ipb = '1' AND inp_r.addr_ipb = ram_Reg_Addr</text>
      </g>
      <g
         id="sprotty_fsm$cr/state$reset_st_to_fsm$cr/state$idle_st"
         class="sprotty-edge transition"
         style="fill:none;stroke:rgb(48, 48, 48);stroke-linejoin:round;">
        <g
           id="g26">
          <path
             d=" M994.8200308481851,234.01729927062985 C981.2951354980469,224.01729927062985 981.2951354980469,219.01729927062985 981.2951354980469,214.51729927062985 C981.2951354980469,210.01729927062985 981.2951354980468,206.01729927062985 981.2951354980469,202.01729927062985 C981.2951354980469,198.01729927062985 981.2951354980468,194.01729927062985 981.2951354980469,177.76513686180112 C981.2951354980469,161.5129744529724 981.2951354980469,133.00864963531492 1101.0711822509766,76"
             id="path25" />
          <path
             d=" M994.8200308481851,234.01729927062985 C981.2951354980469,224.01729927062985 981.2951354980469,219.01729927062985 981.2951354980469,214.51729927062985 C981.2951354980469,210.01729927062985 981.2951354980468,206.01729927062985 981.2951354980469,202.01729927062985 C981.2951354980469,198.01729927062985 981.2951354980468,194.01729927062985 981.2951354980469,177.76513686180112 C981.2951354980469,161.5129744529724 981.2951354980469,133.00864963531492 1101.0711822509766,76"
             class="clickable"
             id="path26" />
        </g>
        <path
           d="M 1101.0711822509766,76 L 1108.0711822509766,73.5 L 1108.0711822509766,78.5 Z"
           transform="rotate(154.54740376081955 1101.0711822509766 76)"
           class="arrow"
           style="fill:rgb(48, 48, 48);stroke-linejoin:miter;stroke-miterlimit:2;"
           id="path27" />
        <text
           class="clickable sprotty-label transition"
           id="sprotty_fsm$cr/state$reset_st_to_fsm$cr/state$idle_st/label0"
           transform="translate(661.4930419921875, 190.01729927062985) translate(156.9010467529297, 18.666667938232422)"
           style="cursor:default;fill:rgb(48, 48, 48);font-size:16px;perspective-origin:43.5764px 1.38889px;stroke:none;text-anchor:middle;">(cr.resetcnt &gt; 64) OR (inp_r.reset_stm = '0')</text>
      </g>
      <g
         id="sprotty_fsm$cr/state$read_st_to_fsm$cr/state$read_ack_st"
         class="sprotty-edge transition"
         style="fill:none;stroke:rgb(48, 48, 48);stroke-linejoin:round;">
        <g
           id="g29">
          <path
             d=" M610.4930419921875,274.01729927062985 C610.4930419921875,274.01729927062985 582.2896335601806,288.11900348663323 328.45895767211914,302.2207077026367"
             id="path28" />
          <path
             d=" M610.4930419921875,274.01729927062985 C610.4930419921875,274.01729927062985 582.2896335601806,288.11900348663323 328.45895767211914,302.2207077026367"
             class="clickable"
             id="path29" />
        </g>
        <path
           d="M 328.45895767211914,302.2207077026367 L 335.45895767211914,299.7207077026367 L 335.45895767211914,304.7207077026367 Z"
           transform="rotate(-3.1798301198642402 328.45895767211914 302.2207077026367)"
           class="arrow"
           style="fill:rgb(48, 48, 48);stroke-linejoin:miter;stroke-miterlimit:2;"
           id="path30" />
      </g>
      <g
         id="sprotty_fsm$cr/state$read_ack_st_to_fsm$cr/state$idle_st"
         class="sprotty-edge transition"
         style="fill:none;stroke:rgb(48, 48, 48);stroke-linejoin:round;">
        <g
           id="g32">
          <path
             d=" M294.03408432006836,302.2207077026367 C12,288.11900348663323 12,281.06815137863157 12,269.20939199129737 C12,257.3506326039632 12,240.6839659372965 12,229.51729927062985 C12,218.35063260396316 12.000000000000007,212.6839659372965 12,207.01729927062985 C12,201.35063260396316 12,195.6839659372965 12,178.59847019513447 C12,161.5129744529724 12,133.00864963531492 1081.0711822509766,76"
             id="path31" />
          <path
             d=" M294.03408432006836,302.2207077026367 C12,288.11900348663323 12,281.06815137863157 12,269.20939199129737 C12,257.3506326039632 12,240.6839659372965 12,229.51729927062985 C12,218.35063260396316 12.000000000000007,212.6839659372965 12,207.01729927062985 C12,201.35063260396316 12,195.6839659372965 12,178.59847019513447 C12,161.5129744529724 12,133.00864963531492 1081.0711822509766,76"
             class="clickable"
             id="path32" />
        </g>
        <path
           d="M 1081.0711822509766,76 L 1088.0711822509766,73.5 L 1088.0711822509766,78.5 Z"
           transform="rotate(176.94757067780952 1081.0711822509766 76)"
           class="arrow"
           style="fill:rgb(48, 48, 48);stroke-linejoin:miter;stroke-miterlimit:2;"
           id="path33" />
      </g>
      <g
         id="sprotty_fsm$cr/state$write_st_to_fsm$cr/state$write_finish_st"
         class="sprotty-edge transition"
         style="fill:none;stroke:rgb(48, 48, 48);stroke-linejoin:round;">
        <g
           id="g35">
          <path
             d=" M2291.2441749572754,274.01729927062985 C2291.2441749572754,274.01729927062985 2263.3820106506346,288.11900348663323 2012.622531890869,302.2207077026367"
             id="path34" />
          <path
             d=" M2291.2441749572754,274.01729927062985 C2291.2441749572754,274.01729927062985 2263.3820106506346,288.11900348663323 2012.622531890869,302.2207077026367"
             class="clickable"
             id="path35" />
        </g>
        <path
           d="M 2012.622531890869,302.2207077026367 L 2019.622531890869,299.7207077026367 L 2019.622531890869,304.7207077026367 Z"
           transform="rotate(-3.2186939570908195 2012.622531890869 302.2207077026367)"
           class="arrow"
           style="fill:rgb(48, 48, 48);stroke-linejoin:miter;stroke-miterlimit:2;"
           id="path36" />
      </g>
      <g
         id="sprotty_fsm$cr/state$write_finish_st_to_fsm$cr/state$idle_st"
         class="sprotty-edge transition"
         style="fill:none;stroke:rgb(48, 48, 48);stroke-linejoin:round;">
        <g
           id="g38">
          <path
             d=" M1971.372776031494,302.2207077026367 C1692.7511329650877,288.11900348663323 1692.751132965088,281.06815137863157 1692.751132965088,269.20939199129737 C1692.751132965088,257.3506326039632 1692.7511329650877,240.6839659372965 1692.751132965088,229.51729927062985 C1692.751132965088,218.35063260396316 1692.7511329650877,212.6839659372965 1692.7511329650877,207.01729927062985 C1692.7511329650877,201.35063260396316 1692.7511329650877,195.6839659372965 1692.751132965088,178.59847019513447 C1692.751132965088,161.5129744529724 1692.7511329650877,133.00864963531492 1141.0711822509766,76"
             id="path37" />
          <path
             d=" M1971.372776031494,302.2207077026367 C1692.7511329650877,288.11900348663323 1692.751132965088,281.06815137863157 1692.751132965088,269.20939199129737 C1692.751132965088,257.3506326039632 1692.7511329650877,240.6839659372965 1692.751132965088,229.51729927062985 C1692.751132965088,218.35063260396316 1692.7511329650877,212.6839659372965 1692.7511329650877,207.01729927062985 C1692.7511329650877,201.35063260396316 1692.7511329650877,195.6839659372965 1692.751132965088,178.59847019513447 C1692.751132965088,161.5129744529724 1692.7511329650877,133.00864963531492 1141.0711822509766,76"
             class="clickable"
             id="path38" />
        </g>
        <path
           d="M 1141.0711822509766,76 L 1148.0711822509766,73.5 L 1148.0711822509766,78.5 Z"
           transform="rotate(5.899801936444258 1141.0711822509766 76)"
           class="arrow"
           style="fill:rgb(48, 48, 48);stroke-linejoin:miter;stroke-miterlimit:2;"
           id="path39" />
      </g>
      <g
         id="sprotty_fsm$cr/state$delay_st_to_fsm$cr/state$load_st"
         class="sprotty-edge transition"
         style="fill:none;stroke:rgb(48, 48, 48);stroke-linejoin:round;">
        <g
           id="g41">
          <path
             d=" M1602.299155553182,274.01729927062985 C1602.299155553182,274.01729927062985 1622.8455535252888,288.11900348663323 1625.1284866333006,302.2207077026367"
             id="path40" />
          <path
             d=" M1602.299155553182,274.01729927062985 C1602.299155553182,274.01729927062985 1622.8455535252888,288.11900348663323 1625.1284866333006,302.2207077026367"
             class="clickable"
             id="path41" />
        </g>
        <path
           d="M 1625.1284866333006,302.2207077026367 L 1632.1284866333006,299.7207077026367 L 1632.1284866333006,304.7207077026367 Z"
           transform="rotate(-99.19586421495373 1625.1284866333006 302.2207077026367)"
           class="arrow"
           style="fill:rgb(48, 48, 48);stroke-linejoin:miter;stroke-miterlimit:2;"
           id="path42" />
      </g>
      <g
         id="sprotty_fsm$cr/state$load_st_to_fsm$cr/state$wait4redge_st"
         class="sprotty-edge transition"
         style="fill:none;stroke:rgb(48, 48, 48);stroke-linejoin:round;">
        <g
           id="g44">
          <path
             d=" M1625.1284866333006,342.2207077026367 C1625.1284866333006,342.2207077026367 1625.1284866333006,352.2207077026367 1625.1284866333006,362.2207077026367"
             id="path43" />
          <path
             d=" M1625.1284866333006,342.2207077026367 C1625.1284866333006,342.2207077026367 1625.1284866333006,352.2207077026367 1625.1284866333006,362.2207077026367"
             class="clickable"
             id="path44" />
        </g>
        <path
           d="M 1625.1284866333006,362.2207077026367 L 1632.1284866333006,359.7207077026367 L 1632.1284866333006,364.7207077026367 Z"
           transform="rotate(-90 1625.1284866333006 362.2207077026367)"
           class="arrow"
           style="fill:rgb(48, 48, 48);stroke-linejoin:miter;stroke-miterlimit:2;"
           id="path45" />
      </g>
      <g
         id="sprotty_fsm$cr/state$wait4fedge_st_to_fsm$cr/state$shift_st"
         class="sprotty-edge transition"
         style="fill:none;stroke:rgb(48, 48, 48);stroke-linejoin:round;">
        <g
           id="g47">
          <path
             d=" M1874.2639083862305,533.1533621470134 C1874.2639083862305,543.1533621470134 1874.2639083862302,557.6533621470132 1874.2639083862302,569.7366954803466 C1874.2639083862305,581.82002881368 1874.26390838623,591.4866954803465 1874.26390838623,601.5078064242996 C1874.26390838623,611.5289173682529 1874.2639083862305,621.9044725894928 1459.2416995366414,642.6555830319722"
             id="path46" />
          <path
             d=" M1874.2639083862305,533.1533621470134 C1874.2639083862305,543.1533621470134 1874.2639083862302,557.6533621470132 1874.2639083862302,569.7366954803466 C1874.2639083862305,581.82002881368 1874.26390838623,591.4866954803465 1874.26390838623,601.5078064242996 C1874.26390838623,611.5289173682529 1874.2639083862305,621.9044725894928 1459.2416995366414,642.6555830319722"
             class="clickable"
             id="path47" />
        </g>
        <path
           d="M 1459.2416995366414,642.6555830319722 L 1466.2416995366414,640.1555830319722 L 1466.2416995366414,645.1555830319722 Z"
           transform="rotate(-2.8624052261117465 1459.2416995366414 642.6555830319722)"
           class="arrow"
           style="fill:rgb(48, 48, 48);stroke-linejoin:miter;stroke-miterlimit:2;"
           id="path48" />
        <text
           class="clickable sprotty-label transition"
           id="sprotty_fsm$cr/state$wait4fedge_st_to_fsm$cr/state$shift_st/label0"
           transform="translate(1881.2639083862305, 553.1533621470134) translate(240.6354217529297, 18.666667938232422)"
           style="cursor:default;fill:rgb(48, 48, 48);font-size:16px;perspective-origin:66.8403px 1.38889px;stroke:none;text-anchor:middle;">(inp_r.clk_for_sr = '0' AND inp_r.detect = '1') OR (cr.extendcnt &gt; 0)</text>
        <text
           class="clickable sprotty-label transition"
           id="sprotty_fsm$cr/state$wait4fedge_st_to_fsm$cr/state$shift_st/label1"
           transform="translate(1881.2639083862305, 577.1533621470134) translate(58.546875, 18.666667938232422)"
           style="cursor:default;fill:rgb(48, 48, 48);font-size:16px;perspective-origin:16.2587px 1.38889px;stroke:none;text-anchor:middle;">cr.extendcnt &gt; 3</text>
      </g>
      <g
         id="sprotty_fsm$cr/state$wait4redge_st_to_fsm$cr/state$wait4fedge_st"
         class="sprotty-edge transition"
         style="fill:none;stroke:rgb(48, 48, 48);stroke-linejoin:round;">
        <g
           id="g50">
          <path
             d=" M1644.937363942464,402.2207077026367 C1874.2639083862305,413.687034924825 1874.2639083862302,419.42019853591916 1874.2639083862302,427.12011367479954 C1874.2639083862305,434.82002881368004 1874.26390838623,444.4866954803466 1874.26390838623,456.5700288136799 C1874.26390838623,468.65336214701335 1874.2639083862305,483.15336214701335 1874.2639083862305,493.15336214701335"
             id="path49" />
          <path
             d=" M1644.937363942464,402.2207077026367 C1874.2639083862305,413.687034924825 1874.2639083862302,419.42019853591916 1874.2639083862302,427.12011367479954 C1874.2639083862305,434.82002881368004 1874.26390838623,444.4866954803466 1874.26390838623,456.5700288136799 C1874.26390838623,468.65336214701335 1874.2639083862305,483.15336214701335 1874.2639083862305,493.15336214701335"
             class="clickable"
             id="path50" />
        </g>
        <path
           d="M 1874.2639083862305,493.15336214701335 L 1881.2639083862305,490.65336214701335 L 1881.2639083862305,495.65336214701335 Z"
           transform="rotate(-90 1874.2639083862305 493.15336214701335)"
           class="arrow"
           style="fill:rgb(48, 48, 48);stroke-linejoin:miter;stroke-miterlimit:2;"
           id="path51" />
        <text
           class="clickable sprotty-label transition"
           id="sprotty_fsm$cr/state$wait4redge_st_to_fsm$cr/state$wait4fedge_st/label0"
           transform="translate(1386.993064880371, 425.15336214701335) translate(240.6354217529297, 18.666667938232422)"
           style="cursor:default;fill:rgb(48, 48, 48);font-size:16px;perspective-origin:66.8403px 1.38889px;stroke:none;text-anchor:middle;">(inp_r.clk_for_sr = '1' AND inp_r.detect = '0') OR (cr.extendcnt &gt; 0)</text>
        <text
           class="clickable sprotty-label transition"
           id="sprotty_fsm$cr/state$wait4redge_st_to_fsm$cr/state$wait4fedge_st/label1"
           transform="translate(1751.1701583862305, 449.15336214701335) translate(58.546875, 18.666667938232422)"
           style="cursor:default;fill:rgb(48, 48, 48);font-size:16px;perspective-origin:16.2587px 1.38889px;stroke:none;text-anchor:middle;">cr.extendcnt &gt; 3</text>
      </g>
      <g
         id="sprotty_fsm$cr/state$shift_st_to_fsm$cr/state$finish_st"
         class="sprotty-edge transition"
         style="fill:none;stroke:rgb(48, 48, 48);stroke-linejoin:round;">
        <g
           id="g53">
          <path
             d=" M1442.347040494283,682.6555830319722 C1442.347040494283,692.6555830319722 1442.347040494283,703.6555830319722 1442.347040494283,714.6555830319722 C1442.347040494283,725.6555830319722 1442.347040494283,736.6555830319722 1442.347040494283,746.6555830319722"
             id="path52" />
          <path
             d=" M1442.347040494283,682.6555830319722 C1442.347040494283,692.6555830319722 1442.347040494283,703.6555830319722 1442.347040494283,714.6555830319722 C1442.347040494283,725.6555830319722 1442.347040494283,736.6555830319722 1442.347040494283,746.6555830319722"
             class="clickable"
             id="path53" />
        </g>
        <path
           d="M 1442.347040494283,746.6555830319722 L 1449.347040494283,744.1555830319722 L 1449.347040494283,749.1555830319722 Z"
           transform="rotate(-90 1442.347040494283 746.6555830319722)"
           class="arrow"
           style="fill:rgb(48, 48, 48);stroke-linejoin:miter;stroke-miterlimit:2;"
           id="path54" />
        <text
           class="clickable sprotty-label transition"
           id="sprotty_fsm$cr/state$shift_st_to_fsm$cr/state$finish_st/label0"
           transform="translate(1449.347040494283, 702.6555830319722) translate(332.1458435058594, 18.666667938232422)"
           style="cursor:default;fill:rgb(48, 48, 48);font-size:16px;perspective-origin:92.257px 1.38889px;stroke:none;text-anchor:middle;">(cr.bitcnt = 255 AND Stat_Con_Reg(0) = '0') OR (cr.bitcnt = 1143 AND Stat_Con_Reg(0) = '1')</text>
      </g>
      <g
         id="sprotty_fsm$cr/state$shift_st_to_fsm$cr/state$delay_st"
         class="sprotty-edge transition"
         style="fill:none;stroke:rgb(48, 48, 48);stroke-linejoin:round;">
        <g
           id="g56">
          <path
             d=" M1425.4523814519246,642.6555830319722 C1324.993064880371,621.9044725894928 1324.9930648803709,611.528917368253 1324.9930648803709,601.5078064242998 C1324.993064880371,591.4866954803466 1324.9930648803713,581.82002881368 1324.993064880371,572.1533621470134 C1324.993064880371,562.4866954803467 1324.9930648803713,552.8200288136801 1324.993064880371,537.9866954803467 C1324.993064880371,523.1533621470134 1324.9930648803713,503.1533621470134 1324.9930648803709,487.36450154516433 C1324.9930648803709,471.5756409433153 1324.9930648803709,459.99791973961726 1324.9930648803709,448.4201985359192 C1324.9930648803709,436.84247733222116 1324.993064880371,425.2647561285231 1324.993064880371,409.23150765630936 C1324.993064880371,393.19825918409555 1324.993064880371,372.7094834433661 1324.993064880371,358.2984289063348 C1324.993064880371,343.8873743693034 1324.993064880371,335.55404103597004 1324.993064880371,327.2207077026366 C1324.993064880371,318.8873743693033 1324.993064880371,310.55404103597 1324.993064880371,302.8619483153025 C1324.993064880371,295.169855594635 1324.993064880371,288.11900348663323 1577.148940404256,274.01729927062985"
             id="path55" />
          <path
             d=" M1425.4523814519246,642.6555830319722 C1324.993064880371,621.9044725894928 1324.9930648803709,611.528917368253 1324.9930648803709,601.5078064242998 C1324.993064880371,591.4866954803466 1324.9930648803713,581.82002881368 1324.993064880371,572.1533621470134 C1324.993064880371,562.4866954803467 1324.9930648803713,552.8200288136801 1324.993064880371,537.9866954803467 C1324.993064880371,523.1533621470134 1324.9930648803713,503.1533621470134 1324.9930648803709,487.36450154516433 C1324.9930648803709,471.5756409433153 1324.9930648803709,459.99791973961726 1324.9930648803709,448.4201985359192 C1324.9930648803709,436.84247733222116 1324.993064880371,425.2647561285231 1324.993064880371,409.23150765630936 C1324.993064880371,393.19825918409555 1324.993064880371,372.7094834433661 1324.993064880371,358.2984289063348 C1324.993064880371,343.8873743693034 1324.993064880371,335.55404103597004 1324.993064880371,327.2207077026366 C1324.993064880371,318.8873743693033 1324.993064880371,310.55404103597 1324.993064880371,302.8619483153025 C1324.993064880371,295.169855594635 1324.993064880371,288.11900348663323 1577.148940404256,274.01729927062985"
             class="clickable"
             id="path56" />
        </g>
        <path
           d="M 1577.148940404256,274.01729927062985 L 1584.148940404256,271.51729927062985 L 1584.148940404256,276.51729927062985 Z"
           transform="rotate(176.79909346054404 1577.148940404256 274.01729927062985)"
           class="arrow"
           style="fill:rgb(48, 48, 48);stroke-linejoin:miter;stroke-miterlimit:2;"
           id="path57" />
        <text
           class="clickable sprotty-label transition"
           id="sprotty_fsm$cr/state$shift_st_to_fsm$cr/state$delay_st/label0"
           transform="translate(1210.8472290039062, 437.15336214701335) translate(54.07291793823242, 18.666667938232422)"
           style="cursor:default;fill:rgb(48, 48, 48);font-size:16px;perspective-origin:15.0174px 1.38889px;stroke:none;text-anchor:middle;">cr.shiftcnt = 31</text>
      </g>
      <g
         id="sprotty_fsm$cr/state$shift_st_to_fsm$cr/state$wait4redge_st"
         class="sprotty-edge transition"
         style="fill:none;stroke:rgb(48, 48, 48);stroke-linejoin:round;">
        <g
           id="g59">
          <path
             d=" M1442.347040494283,642.6555830319722 C1375.993064880371,621.9044725894928 1375.993064880371,611.528917368253 1375.993064880371,601.5078064242998 C1375.993064880371,591.4866954803466 1375.993064880371,581.82002881368 1375.993064880371,572.1533621470134 C1375.993064880371,562.4866954803467 1375.9930648803713,552.82002881368 1375.9930648803713,537.9866954803467 C1375.993064880371,523.1533621470132 1375.993064880371,503.1533621470133 1375.993064880371,488.32002881368 C1375.993064880371,473.48669548034667 1375.9930648803713,463.82002881368004 1375.993064880371,454.15336214701335 C1375.993064880371,444.4866954803467 1375.9930648803713,434.82002881368004 1375.993064880371,427.1201136747996 C1375.993064880371,419.4201985359191 1375.993064880371,413.687034924825 1605.3196093241372,402.2207077026367"
             id="path58" />
          <path
             d=" M1442.347040494283,642.6555830319722 C1375.993064880371,621.9044725894928 1375.993064880371,611.528917368253 1375.993064880371,601.5078064242998 C1375.993064880371,591.4866954803466 1375.993064880371,581.82002881368 1375.993064880371,572.1533621470134 C1375.993064880371,562.4866954803467 1375.9930648803713,552.82002881368 1375.9930648803713,537.9866954803467 C1375.993064880371,523.1533621470132 1375.993064880371,503.1533621470133 1375.993064880371,488.32002881368 C1375.993064880371,473.48669548034667 1375.9930648803713,463.82002881368004 1375.993064880371,454.15336214701335 C1375.993064880371,444.4866954803467 1375.9930648803713,434.82002881368004 1375.993064880371,427.1201136747996 C1375.993064880371,419.4201985359191 1375.993064880371,413.687034924825 1605.3196093241372,402.2207077026367"
             class="clickable"
             id="path59" />
        </g>
        <path
           d="M 1605.3196093241372,402.2207077026367 L 1612.3196093241372,399.7207077026367 L 1612.3196093241372,404.7207077026367 Z"
           transform="rotate(177.13759477388825 1605.3196093241372 402.2207077026367)"
           class="arrow"
           style="fill:rgb(48, 48, 48);stroke-linejoin:miter;stroke-miterlimit:2;"
           id="path60" />
      </g>
      <g
         id="sprotty_fsm$cr/state$finish_st_to_fsm$cr/state$update_st"
         class="sprotty-edge transition"
         style="fill:none;stroke:rgb(48, 48, 48);stroke-linejoin:round;">
        <g
           id="g62">
          <path
             d=" M1442.347040494283,786.6555830319722 C1442.347040494283,796.6555830319722 1442.347040494283,811.1555830319722 1442.347040494283,823.2389163653056 C1442.347040494283,835.322249698639 1442.3470404942827,844.9889163653056 1442.3470404942827,852.3222496986388 C1442.3470404942827,859.6555830319721 1442.347040494283,864.6555830319722 1312.5000858306882,874.6555830319722"
             id="path61" />
          <path
             d=" M1442.347040494283,786.6555830319722 C1442.347040494283,796.6555830319722 1442.347040494283,811.1555830319722 1442.347040494283,823.2389163653056 C1442.347040494283,835.322249698639 1442.3470404942827,844.9889163653056 1442.3470404942827,852.3222496986388 C1442.3470404942827,859.6555830319721 1442.347040494283,864.6555830319722 1312.5000858306882,874.6555830319722"
             class="clickable"
             id="path62" />
        </g>
        <path
           d="M 1312.5000858306882,874.6555830319722 L 1319.5000858306882,872.1555830319722 L 1319.5000858306882,877.1555830319722 Z"
           transform="rotate(-4.4038695470237785 1312.5000858306882 874.6555830319722)"
           class="arrow"
           style="fill:rgb(48, 48, 48);stroke-linejoin:miter;stroke-miterlimit:2;"
           id="path63" />
        <text
           class="clickable sprotty-label transition"
           id="sprotty_fsm$cr/state$finish_st_to_fsm$cr/state$update_st/label0"
           transform="translate(1449.347040494283, 806.6555830319722) translate(240.6354217529297, 18.666667938232422)"
           style="cursor:default;fill:rgb(48, 48, 48);font-size:16px;perspective-origin:66.8403px 1.38889px;stroke:none;text-anchor:middle;">(inp_r.clk_for_sr = '1' AND inp_r.detect = '0') OR (cr.extendcnt) &gt; 0</text>
        <text
           class="clickable sprotty-label transition"
           id="sprotty_fsm$cr/state$finish_st_to_fsm$cr/state$update_st/label1"
           transform="translate(1449.347040494283, 830.6555830319722) translate(58.546875, 18.666667938232422)"
           style="cursor:default;fill:rgb(48, 48, 48);font-size:16px;perspective-origin:16.2587px 1.38889px;stroke:none;text-anchor:middle;">cr.extendcnt &gt; 3</text>
      </g>
      <g
         id="sprotty_fsm$cr/state$update_st_to_fsm$cr/state$idle_st"
         class="sprotty-edge transition"
         style="fill:none;stroke:rgb(48, 48, 48);stroke-linejoin:round;">
        <g
           id="g65">
          <path
             d=" M1283.253875096639,874.6555830319722 C1199.8472290039062,864.6555830319722 1199.8472290039062,859.6555830319721 1199.8472290039062,852.3222496986388 C1199.8472290039062,844.9889163653055 1199.8472290039062,835.3222496986389 1199.8472290039062,825.6555830319721 C1199.8472290039062,815.9889163653055 1199.8472290039062,806.3222496986388 1199.8472290039062,791.4889163653055 C1199.8472290039062,776.6555830319722 1199.8472290039062,756.6555830319721 1199.8472290039062,742.9889163653054 C1199.8472290039062,729.3222496986389 1199.8472290039062,721.9889163653055 1199.8472290039062,714.6555830319721 C1199.8472290039062,707.3222496986389 1199.8472290039062,699.9889163653055 1199.8472290039062,684.5303979582255 C1199.8472290039062,669.0718795511457 1199.8472290039062,645.4881760703192 1199.8472290039062,627.1337317930327 C1199.8472290039062,608.7792875157462 1199.8472290039062,595.6541024419997 1199.8472290039062,582.528917368253 C1199.8472290039062,569.4037322945065 1199.8472290039062,556.27854722076 1199.8472290039062,539.7159546838866 C1199.8472290039062,523.1533621470132 1199.8472290039062,503.1533621470133 1199.8472290039062,487.3645015451642 C1199.8472290039062,471.57564094331525 1199.8472290039062,459.99791973961726 1199.8472290039062,448.42019853591916 C1199.8472290039062,436.8424773322211 1199.8472290039062,425.26475612852306 1199.8472290039062,409.23150765630925 C1199.8472290039062,393.19825918409555 1199.8472290039062,372.70948344336614 1199.8472290039062,357.1232868883344 C1199.8472290039062,341.5370903333028 1199.8472290039062,330.8534729639689 1199.8472290039062,320.169855594635 C1199.8472290039062,309.48623822530107 1199.8472290039062,298.8026208559672 1199.8472290039062,282.7771948019663 C1199.8472290039062,266.75176874796546 1199.8472290039062,245.38453400929765 1199.8472290039062,231.86758330663042 C1199.8472290039062,218.35063260396316 1199.8472290039062,212.6839659372965 1199.8472290039062,207.01729927062982 C1199.8472290039062,201.35063260396316 1199.8472290039062,195.68396593729653 1199.8472290039062,178.59847019513444 C1199.8472290039062,161.51297445297237 1199.8472290039062,133.00864963531492 1121.0711822509766,76"
             id="path64" />
          <path
             d=" M1283.253875096639,874.6555830319722 C1199.8472290039062,864.6555830319722 1199.8472290039062,859.6555830319721 1199.8472290039062,852.3222496986388 C1199.8472290039062,844.9889163653055 1199.8472290039062,835.3222496986389 1199.8472290039062,825.6555830319721 C1199.8472290039062,815.9889163653055 1199.8472290039062,806.3222496986388 1199.8472290039062,791.4889163653055 C1199.8472290039062,776.6555830319722 1199.8472290039062,756.6555830319721 1199.8472290039062,742.9889163653054 C1199.8472290039062,729.3222496986389 1199.8472290039062,721.9889163653055 1199.8472290039062,714.6555830319721 C1199.8472290039062,707.3222496986389 1199.8472290039062,699.9889163653055 1199.8472290039062,684.5303979582255 C1199.8472290039062,669.0718795511457 1199.8472290039062,645.4881760703192 1199.8472290039062,627.1337317930327 C1199.8472290039062,608.7792875157462 1199.8472290039062,595.6541024419997 1199.8472290039062,582.528917368253 C1199.8472290039062,569.4037322945065 1199.8472290039062,556.27854722076 1199.8472290039062,539.7159546838866 C1199.8472290039062,523.1533621470132 1199.8472290039062,503.1533621470133 1199.8472290039062,487.3645015451642 C1199.8472290039062,471.57564094331525 1199.8472290039062,459.99791973961726 1199.8472290039062,448.42019853591916 C1199.8472290039062,436.8424773322211 1199.8472290039062,425.26475612852306 1199.8472290039062,409.23150765630925 C1199.8472290039062,393.19825918409555 1199.8472290039062,372.70948344336614 1199.8472290039062,357.1232868883344 C1199.8472290039062,341.5370903333028 1199.8472290039062,330.8534729639689 1199.8472290039062,320.169855594635 C1199.8472290039062,309.48623822530107 1199.8472290039062,298.8026208559672 1199.8472290039062,282.7771948019663 C1199.8472290039062,266.75176874796546 1199.8472290039062,245.38453400929765 1199.8472290039062,231.86758330663042 C1199.8472290039062,218.35063260396316 1199.8472290039062,212.6839659372965 1199.8472290039062,207.01729927062982 C1199.8472290039062,201.35063260396316 1199.8472290039062,195.68396593729653 1199.8472290039062,178.59847019513444 C1199.8472290039062,161.51297445297237 1199.8472290039062,133.00864963531492 1121.0711822509766,76"
             class="clickable"
             id="path65" />
        </g>
        <path
           d="M 1121.0711822509766,76 L 1128.0711822509766,73.5 L 1128.0711822509766,78.5 Z"
           transform="rotate(35.89250741855259 1121.0711822509766 76)"
           class="arrow"
           style="fill:rgb(48, 48, 48);stroke-linejoin:miter;stroke-miterlimit:2;"
           id="path66" />
        <text
           class="clickable sprotty-label transition"
           id="sprotty_fsm$cr/state$update_st_to_fsm$cr/state$idle_st/label0"
           transform="translate(880.4930419921875, 501.15336214701335) translate(156.67709350585938, 18.666667938232422)"
           style="cursor:default;fill:rgb(48, 48, 48);font-size:16px;perspective-origin:43.5156px 1.38889px;stroke:none;text-anchor:middle;">inp_r.clk_for_sr = '0' AND inp_r.detect = '1'</text>
      </g>
    </g>
  </g>
</svg>
