<?xml version="1.0" encoding="UTF-8" standalone="no"?>
<svg
   id="sprotty_root"
   class="sprotty-graph sprotty-state-machine statemachine"
   style="border-block-end-color:rgb(204, 204, 204);border-block-start-color:rgb(204, 204, 204);border-bottom-color:rgb(204, 204, 204);border-inline-end-color:rgb(204, 204, 204);border-inline-start-color:rgb(204, 204, 204);border-left-color:rgb(204, 204, 204);border-right-color:rgb(204, 204, 204);border-top-color:rgb(204, 204, 204);caret-color:rgb(204, 204, 204);color:rgb(204, 204, 204);column-rule-color:rgb(204, 204, 204);font-family:&quot;Noto Sans&quot;, Helvetica, Arial, sans-serif;font-size:13px;outline-color:rgb(204, 204, 204);perspective-origin:0px 0px;scrollbar-color:rgba(121, 121, 121, 0.4) rgb(31, 31, 31);text-decoration:none solid rgb(204, 204, 204);text-decoration-color:rgb(204, 204, 204);text-emphasis-color:rgb(204, 204, 204);transform-origin:0px 0px;-webkit-locale:&quot;en&quot;;-webkit-text-fill-color:rgb(204, 204, 204);-webkit-text-stroke-color:rgb(204, 204, 204);"
   version="1.1"
   viewBox="10 10 513.8218040466309 534.8888854980469"
   width="513.8218040466309"
   height="534.8888854980469"
   sodipodi:docname="smallConfigurationdiagram.svg"
   inkscape:version="1.4 (86a8ad7, 2024-10-11)"
   xmlns:inkscape="http://www.inkscape.org/namespaces/inkscape"
   xmlns:sodipodi="http://sodipodi.sourceforge.net/DTD/sodipodi-0.dtd"
   xmlns="http://www.w3.org/2000/svg"
   xmlns:svg="http://www.w3.org/2000/svg">
  <defs
     id="defs63" />
  <sodipodi:namedview
     id="namedview63"
     pagecolor="#ffffff"
     bordercolor="#000000"
     borderopacity="0.25"
     inkscape:showpageshadow="2"
     inkscape:pageopacity="0.0"
     inkscape:pagecheckerboard="0"
     inkscape:deskcolor="#d1d1d1"
     showgrid="false"
     inkscape:zoom="3.4156625"
     inkscape:cx="256.90477"
     inkscape:cy="267.44446"
     inkscape:window-width="3840"
     inkscape:window-height="2066"
     inkscape:window-x="-11"
     inkscape:window-y="-11"
     inkscape:window-maximized="1"
     inkscape:current-layer="sprotty_root" />
  <g
     transform="scale(1) translate(0,0)"
     id="g63">
    <g
       id="sprotty_fsm$cr"
       class="statemachine"
       transform="translate(15, 15)">
      <g
         class="sprotty-block"
         style="fill:rgb(255, 255, 255);stroke:rgb(48, 48, 48);stroke-dasharray:0px;"
         id="g1">
        <rect
           x="0"
           y="0"
           rx="1"
           ry="1"
           width="503.82180404663086"
           height="524.8888854980469"
           id="rect1" />
        <text
           x="251.9109"
           y="12"
           class="sprotty-block-name"
           style="font-weight:700;font-size:16px;dominant-baseline:middle;text-anchor:middle;fill:#303030"
           id="text1">Configuration state machine</text>
        <line
           x1="0"
           y1="20"
           x2="503.82180404663086"
           y2="20"
           id="line1" />
      </g>
      <g
         id="sprotty_fsm$cr/state$idle_st"
         class="state"
         transform="translate(163.79248619079587, 36)">
        <ellipse
           cx="40"
           cy="19.80555534362793"
           rx="40"
           ry="19.80555534362793"
           class="sprotty-node clickable"
           style="fill:rgb(255, 255, 255);stroke:rgb(48, 48, 48);"
           id="ellipse1" />
        <text
           class="clickable sprotty-label state"
           id="sprotty_fsm$cr/state$idle_st/label"
           transform="translate(15.068721771240234, 8) translate(24.931278228759766, 18.518518447875977)"
           style="cursor:default;fill:rgb(48, 48, 48);font-size:16px;perspective-origin:5.76534px 1.17188px;text-anchor:middle;">idle_st</text>
      </g>
      <g
         id="sprotty_fsm$cr/state$reset_st"
         class="state"
         transform="translate(23, 115.61111068725586)">
        <ellipse
           cx="35.61154556274414"
           cy="19.80555534362793"
           rx="35.61154556274414"
           ry="19.80555534362793"
           class="sprotty-node clickable"
           style="fill:rgb(255, 255, 255);stroke:rgb(48, 48, 48);"
           id="ellipse2" />
        <text
           class="clickable sprotty-label state"
           id="sprotty_fsm$cr/state$reset_st/label"
           transform="translate(6, 8) translate(29.61154556274414, 18.518518447875977)"
           style="cursor:default;fill:rgb(48, 48, 48);font-size:16px;perspective-origin:6.8504px 1.17188px;text-anchor:middle;">reset_st</text>
      </g>
      <g
         id="sprotty_fsm$cr/state$read_st"
         class="state"
         transform="translate(265.7924861907959, 115.61111068725586)">
        <ellipse
           cx="33.850114822387695"
           cy="19.80555534362793"
           rx="33.850114822387695"
           ry="19.80555534362793"
           class="sprotty-node clickable"
           style="fill:rgb(255, 255, 255);stroke:rgb(48, 48, 48);"
           id="ellipse3" />
        <text
           class="clickable sprotty-label state"
           id="sprotty_fsm$cr/state$read_st/label"
           transform="translate(6, 8) translate(27.850114822387695, 18.518518447875977)"
           style="cursor:default;fill:rgb(48, 48, 48);font-size:16px;perspective-origin:6.44531px 1.17188px;text-anchor:middle;">read_st</text>
      </g>
      <g
         id="sprotty_fsm$cr/state$read_ack_st"
         class="state"
         transform="translate(225.8941946029663, 175.22222137451172)">
        <ellipse
           cx="51.32334899902344"
           cy="19.80555534362793"
           rx="51.32334899902344"
           ry="19.80555534362793"
           class="sprotty-node clickable"
           style="fill:rgb(255, 255, 255);stroke:rgb(48, 48, 48);"
           id="ellipse4" />
        <text
           class="clickable sprotty-label state"
           id="sprotty_fsm$cr/state$read_ack_st/label"
           transform="translate(6, 8) translate(45.32334899902344, 18.518518447875977)"
           style="cursor:default;fill:rgb(48, 48, 48);font-size:16px;perspective-origin:10.489px 1.17188px;text-anchor:middle;">read_ack_st</text>
      </g>
      <g
         id="sprotty_fsm$cr/state$write_st"
         class="state"
         transform="translate(119.22309112548828, 115.61111068725586)">
        <ellipse
           cx="36.107059478759766"
           cy="19.80555534362793"
           rx="36.107059478759766"
           ry="19.80555534362793"
           class="sprotty-node clickable"
           style="fill:rgb(255, 255, 255);stroke:rgb(48, 48, 48);"
           id="ellipse5" />
        <text
           class="clickable sprotty-label state"
           id="sprotty_fsm$cr/state$write_st/label"
           transform="translate(6, 8) translate(30.107059478759766, 18.518518447875977)"
           style="cursor:default;fill:rgb(48, 48, 48);font-size:16px;perspective-origin:6.96615px 1.17188px;text-anchor:middle;">write_st</text>
      </g>
      <g
         id="sprotty_fsm$cr/state$load_st"
         class="state"
         transform="translate(354.3810501098633, 175.22222137451172)">
        <ellipse
           cx="33.52821159362793"
           cy="19.80555534362793"
           rx="33.52821159362793"
           ry="19.80555534362793"
           class="sprotty-node clickable"
           style="fill:rgb(255, 255, 255);stroke:rgb(48, 48, 48);"
           id="ellipse6" />
        <text
           class="clickable sprotty-label state"
           id="sprotty_fsm$cr/state$load_st/label"
           transform="translate(6, 8) translate(27.52821159362793, 18.518518447875977)"
           style="cursor:default;fill:rgb(48, 48, 48);font-size:16px;perspective-origin:6.36574px 1.17188px;text-anchor:middle;">load_st</text>
      </g>
      <g
         id="sprotty_fsm$cr/state$wait4fedge_st"
         class="state"
         transform="translate(364.2717475891113, 294.44444274902344)">
        <ellipse
           cx="58.275028228759766"
           cy="19.80555534362793"
           rx="58.275028228759766"
           ry="19.80555534362793"
           class="sprotty-node clickable"
           style="fill:rgb(255, 255, 255);stroke:rgb(48, 48, 48);"
           id="ellipse7" />
        <text
           class="clickable sprotty-label state"
           id="sprotty_fsm$cr/state$wait4fedge_st/label"
           transform="translate(6, 8) translate(52.275028228759766, 18.518518447875977)"
           style="cursor:default;fill:rgb(48, 48, 48);font-size:16px;perspective-origin:12.0949px 1.17188px;text-anchor:middle;">wait4fedge_st</text>
      </g>
      <g
         id="sprotty_fsm$cr/state$wait4redge_st"
         class="state"
         transform="translate(329.13148307800293, 234.83333206176758)">
        <ellipse
           cx="58.77777862548828"
           cy="19.80555534362793"
           rx="58.77777862548828"
           ry="19.80555534362793"
           class="sprotty-node clickable"
           style="fill:rgb(255, 255, 255);stroke:rgb(48, 48, 48);"
           id="ellipse8" />
        <text
           class="clickable sprotty-label state"
           id="sprotty_fsm$cr/state$wait4redge_st/label"
           transform="translate(6, 8) translate(52.77777862548828, 18.518518447875977)"
           style="cursor:default;fill:rgb(48, 48, 48);font-size:16px;perspective-origin:12.2106px 1.17188px;text-anchor:middle;">wait4redge_st</text>
      </g>
      <g
         id="sprotty_fsm$cr/state$shift_st"
         class="state"
         transform="translate(388.5728187561035, 354.0555534362793)">
        <ellipse
           cx="33.47395706176758"
           cy="19.80555534362793"
           rx="33.47395706176758"
           ry="19.80555534362793"
           class="sprotty-node clickable"
           style="fill:rgb(255, 255, 255);stroke:rgb(48, 48, 48);"
           id="ellipse9" />
        <text
           class="clickable sprotty-label state"
           id="sprotty_fsm$cr/state$shift_st/label"
           transform="translate(6, 8) translate(27.473957061767578, 18.518518447875977)"
           style="cursor:default;fill:rgb(48, 48, 48);font-size:16px;perspective-origin:6.35851px 1.17188px;text-anchor:middle;">shift_st</text>
      </g>
      <g
         id="sprotty_fsm$cr/state$finish_st"
         class="state"
         transform="translate(384.3410472869873, 413.66666412353516)">
        <ellipse
           cx="37.70572853088379"
           cy="19.80555534362793"
           rx="37.70572853088379"
           ry="19.80555534362793"
           class="sprotty-node clickable"
           style="fill:rgb(255, 255, 255);stroke:rgb(48, 48, 48);"
           id="ellipse10" />
        <text
           class="clickable sprotty-label state"
           id="sprotty_fsm$cr/state$finish_st/label"
           transform="translate(6, 8) translate(31.70572853088379, 18.518518447875977)"
           style="cursor:default;fill:rgb(48, 48, 48);font-size:16px;perspective-origin:7.33507px 1.17188px;text-anchor:middle;">finish_st</text>
      </g>
      <g
         id="sprotty_fsm$cr/state$update_st"
         class="state"
         transform="translate(264.33147621154785, 473.277774810791)">
        <ellipse
           cx="43.55425262451172"
           cy="19.80555534362793"
           rx="43.55425262451172"
           ry="19.80555534362793"
           class="sprotty-node clickable"
           style="fill:rgb(255, 255, 255);stroke:rgb(48, 48, 48);"
           id="ellipse11" />
        <text
           class="clickable sprotty-label state"
           id="sprotty_fsm$cr/state$update_st/label"
           transform="translate(6, 8) translate(37.55425262451172, 18.518518447875977)"
           style="cursor:default;fill:rgb(48, 48, 48);font-size:16px;perspective-origin:8.68779px 1.17188px;text-anchor:middle;">update_st</text>
      </g>
      <g
         id="sprotty_fsm$cr/state$delay_st"
         class="state"
         transform="translate(394.4339288075765, 115.61111068725586)">
        <ellipse
           cx="37.40914344787598"
           cy="19.80555534362793"
           rx="37.40914344787598"
           ry="19.80555534362793"
           class="sprotty-node clickable"
           style="fill:rgb(255, 255, 255);stroke:rgb(48, 48, 48);"
           id="ellipse12" />
        <text
           class="clickable sprotty-label state"
           id="sprotty_fsm$cr/state$delay_st/label"
           transform="translate(6, 8) translate(31.409143447875977, 18.518518447875977)"
           style="cursor:default;fill:rgb(48, 48, 48);font-size:16px;perspective-origin:7.26997px 1.17188px;text-anchor:middle;">delay_st</text>
      </g>
      <g
         id="sprotty_fsm$cr/state$write_finish_st"
         class="state"
         transform="translate(22.438657760620117, 175.22222137451172)">
        <ellipse
           cx="61.226417541503906"
           cy="19.80555534362793"
           rx="61.226417541503906"
           ry="19.80555534362793"
           class="sprotty-node clickable"
           style="fill:rgb(255, 255, 255);stroke:rgb(48, 48, 48);"
           id="ellipse13" />
        <text
           class="clickable sprotty-label state"
           id="sprotty_fsm$cr/state$write_finish_st/label"
           transform="translate(6, 8) translate(55.226417541503906, 18.518518447875977)"
           style="cursor:default;fill:rgb(48, 48, 48);font-size:16px;perspective-origin:12.7821px 1.17188px;text-anchor:middle;">write_finish_st</text>
      </g>
      <g
         id="sprotty_fsm$cr/state$idle_st_to_fsm$cr/state$reset_st"
         class="sprotty-edge transition"
         style="fill:none;stroke:rgb(48, 48, 48);stroke-linejoin:round;">
        <g
           id="g14">
          <path
             d=" M183.79248619079587,75.61111068725586 C183.79248619079587,75.61111068725586 71.12963962554932,95.61111068725586 58.61154556274414,115.61111068725586"
             id="path13" />
          <path
             d=" M183.79248619079587,75.61111068725586 C183.79248619079587,75.61111068725586 71.12963962554932,95.61111068725586 58.61154556274414,115.61111068725586"
             class="clickable"
             id="path14" />
        </g>
        <path
           d="M 58.61154556274414,115.61111068725586 L 65.61154556274414,113.11111068725586 L 65.61154556274414,118.11111068725586 Z"
           transform="rotate(-57.95735685763896 58.61154556274414 115.61111068725586)"
           class="arrow"
           style="fill:rgb(48, 48, 48);stroke-linejoin:miter;stroke-miterlimit:2;"
           id="path15" />
      </g>
      <g
         id="sprotty_fsm$cr/state$idle_st_to_fsm$cr/state$delay_st"
         class="sprotty-edge transition"
         style="fill:none;stroke:rgb(48, 48, 48);stroke-linejoin:round;">
        <g
           id="g17">
          <path
             d=" M233.79248619079587,75.61111068725586 C233.79248619079587,75.61111068725586 412.0380136489868,95.61111068725586 431.84307225545246,115.61111068725586"
             id="path16" />
          <path
             d=" M233.79248619079587,75.61111068725586 C233.79248619079587,75.61111068725586 412.0380136489868,95.61111068725586 431.84307225545246,115.61111068725586"
             class="clickable"
             id="path17" />
        </g>
        <path
           d="M 431.84307225545246,115.61111068725586 L 438.84307225545246,113.11111068725586 L 438.84307225545246,118.11111068725586 Z"
           transform="rotate(-134.71940174949643 431.84307225545246 115.61111068725586)"
           class="arrow"
           style="fill:rgb(48, 48, 48);stroke-linejoin:miter;stroke-miterlimit:2;"
           id="path18" />
      </g>
      <g
         id="sprotty_fsm$cr/state$idle_st_to_fsm$cr/state$read_st"
         class="sprotty-edge transition"
         style="fill:none;stroke:rgb(48, 48, 48);stroke-linejoin:round;">
        <g
           id="g20">
          <path
             d=" M223.79248619079587,75.61111068725586 C223.79248619079587,75.61111068725586 292.0575895309448,95.61111068725586 299.6426010131836,115.61111068725586"
             id="path19" />
          <path
             d=" M223.79248619079587,75.61111068725586 C223.79248619079587,75.61111068725586 292.0575895309448,95.61111068725586 299.6426010131836,115.61111068725586"
             class="clickable"
             id="path20" />
        </g>
        <path
           d="M 299.6426010131836,115.61111068725586 L 306.6426010131836,113.11111068725586 L 306.6426010131836,118.11111068725586 Z"
           transform="rotate(-110.76926075909604 299.6426010131836 115.61111068725586)"
           class="arrow"
           style="fill:rgb(48, 48, 48);stroke-linejoin:miter;stroke-miterlimit:2;"
           id="path21" />
      </g>
      <g
         id="sprotty_fsm$cr/state$idle_st_to_fsm$cr/state$write_st"
         class="sprotty-edge transition"
         style="fill:none;stroke:rgb(48, 48, 48);stroke-linejoin:round;">
        <g
           id="g23">
          <path
             d=" M193.79248619079587,75.61111068725586 C193.79248619079587,75.61111068725586 159.17638416290285,95.61111068725586 155.33015060424805,115.61111068725586"
             id="path22" />
          <path
             d=" M193.79248619079587,75.61111068725586 C193.79248619079587,75.61111068725586 159.17638416290285,95.61111068725586 155.33015060424805,115.61111068725586"
             class="clickable"
             id="path23" />
        </g>
        <path
           d="M 155.33015060424805,115.61111068725586 L 162.33015060424805,113.11111068725586 L 162.33015060424805,118.11111068725586 Z"
           transform="rotate(-79.11425273007191 155.33015060424805 115.61111068725586)"
           class="arrow"
           style="fill:rgb(48, 48, 48);stroke-linejoin:miter;stroke-miterlimit:2;"
           id="path24" />
      </g>
      <g
         id="sprotty_fsm$cr/state$read_st_to_fsm$cr/state$read_ack_st"
         class="sprotty-edge transition"
         style="fill:none;stroke:rgb(48, 48, 48);stroke-linejoin:round;">
        <g
           id="g26">
          <path
             d=" M299.6426010131836,155.22222137451172 C299.6426010131836,155.22222137451172 299.11087357203166,165.22222137451172 294.3253266016642,175.22222137451172"
             id="path25" />
          <path
             d=" M299.6426010131836,155.22222137451172 C299.6426010131836,155.22222137451172 299.11087357203166,165.22222137451172 294.3253266016642,175.22222137451172"
             class="clickable"
             id="path26" />
        </g>
        <path
           d="M 294.3253266016642,175.22222137451172 L 301.3253266016642,172.72222137451172 L 301.3253266016642,177.72222137451172 Z"
           transform="rotate(-64.42633523497055 294.3253266016642 175.22222137451172)"
           class="arrow"
           style="fill:rgb(48, 48, 48);stroke-linejoin:miter;stroke-miterlimit:2;"
           id="path27" />
      </g>
      <g
         id="sprotty_fsm$cr/state$read_ack_st_to_fsm$cr/state$idle_st"
         class="sprotty-edge transition"
         style="fill:none;stroke:rgb(48, 48, 48);stroke-linejoin:round;">
        <g
           id="g29">
          <path
             d=" M260.10976060231525,175.22222137451172 C254.7924861907959,165.22222137451172 254.7924861907959,160.22222137451172 254.7924861907959,154.42129548390704 C254.7924861907959,148.6203695933024 254.7924861907959,142.01851781209308 254.7924861907959,135.4166660308838 C254.7924861907959,128.81481424967447 254.7924861907959,122.21296246846516 254.7924861907959,113.9120365778605 C254.7924861907959,105.61111068725586 254.7924861907959,95.61111068725586 213.79248619079587,75.61111068725586"
             id="path28" />
          <path
             d=" M260.10976060231525,175.22222137451172 C254.7924861907959,165.22222137451172 254.7924861907959,160.22222137451172 254.7924861907959,154.42129548390704 C254.7924861907959,148.6203695933024 254.7924861907959,142.01851781209308 254.7924861907959,135.4166660308838 C254.7924861907959,128.81481424967447 254.7924861907959,122.21296246846516 254.7924861907959,113.9120365778605 C254.7924861907959,105.61111068725586 254.7924861907959,95.61111068725586 213.79248619079587,75.61111068725586"
             class="clickable"
             id="path29" />
        </g>
        <path
           d="M 213.79248619079587,75.61111068725586 L 220.79248619079587,73.11111068725586 L 220.79248619079587,78.11111068725586 Z"
           transform="rotate(26.003345844511426 213.79248619079587 75.61111068725586)"
           class="arrow"
           style="fill:rgb(48, 48, 48);stroke-linejoin:miter;stroke-miterlimit:2;"
           id="path30" />
      </g>
      <g
         id="sprotty_fsm$cr/state$write_st_to_fsm$cr/state$write_finish_st"
         class="sprotty-edge transition"
         style="fill:none;stroke:rgb(48, 48, 48);stroke-linejoin:round;">
        <g
           id="g32">
          <path
             d=" M155.33015060424805,155.22222137451172 C155.33015060424805,155.22222137451172 150.20452365875244,165.22222137451172 104.07388114929199,175.22222137451172"
             id="path31" />
          <path
             d=" M155.33015060424805,155.22222137451172 C155.33015060424805,155.22222137451172 150.20452365875244,165.22222137451172 104.07388114929199,175.22222137451172"
             class="clickable"
             id="path32" />
        </g>
        <path
           d="M 104.07388114929199,175.22222137451172 L 111.07388114929199,172.72222137451172 L 111.07388114929199,177.72222137451172 Z"
           transform="rotate(-12.231086818057724 104.07388114929199 175.22222137451172)"
           class="arrow"
           style="fill:rgb(48, 48, 48);stroke-linejoin:miter;stroke-miterlimit:2;"
           id="path33" />
      </g>
      <g
         id="sprotty_fsm$cr/state$write_finish_st_to_fsm$cr/state$idle_st"
         class="sprotty-edge transition"
         style="fill:none;stroke:rgb(48, 48, 48);stroke-linejoin:round;">
        <g
           id="g35">
          <path
             d=" M63.256269454956055,175.22222137451172 C12,165.22222137451172 12,160.22222137451172 12,154.42129548390704 C12,148.6203695933024 12,142.01851781209308 12,135.4166660308838 C12,128.81481424967447 12,122.21296246846516 12,113.9120365778605 C12,105.61111068725586 12,95.61111068725586 173.79248619079587,75.61111068725586"
             id="path34" />
          <path
             d=" M63.256269454956055,175.22222137451172 C12,165.22222137451172 12,160.22222137451172 12,154.42129548390704 C12,148.6203695933024 12,142.01851781209308 12,135.4166660308838 C12,128.81481424967447 12,122.21296246846516 12,113.9120365778605 C12,105.61111068725586 12,95.61111068725586 173.79248619079587,75.61111068725586"
             class="clickable"
             id="path35" />
        </g>
        <path
           d="M 173.79248619079587,75.61111068725586 L 180.79248619079587,73.11111068725586 L 180.79248619079587,78.11111068725586 Z"
           transform="rotate(172.95312312682577 173.79248619079587 75.61111068725586)"
           class="arrow"
           style="fill:rgb(48, 48, 48);stroke-linejoin:miter;stroke-miterlimit:2;"
           id="path36" />
      </g>
      <g
         id="sprotty_fsm$cr/state$delay_st_to_fsm$cr/state$load_st"
         class="sprotty-edge transition"
         style="fill:none;stroke:rgb(48, 48, 48);stroke-linejoin:round;">
        <g
           id="g38">
          <path
             d=" M419.37335777282715,155.22222137451172 C419.37335777282715,155.22222137451172 391.05567131042477,165.22222137451172 387.9092617034912,175.22222137451172"
             id="path37" />
          <path
             d=" M419.37335777282715,155.22222137451172 C419.37335777282715,155.22222137451172 391.05567131042477,165.22222137451172 387.9092617034912,175.22222137451172"
             class="clickable"
             id="path38" />
        </g>
        <path
           d="M 387.9092617034912,175.22222137451172 L 394.9092617034912,172.72222137451172 L 394.9092617034912,177.72222137451172 Z"
           transform="rotate(-72.53428909334188 387.9092617034912 175.22222137451172)"
           class="arrow"
           style="fill:rgb(48, 48, 48);stroke-linejoin:miter;stroke-miterlimit:2;"
           id="path39" />
      </g>
      <g
         id="sprotty_fsm$cr/state$load_st_to_fsm$cr/state$wait4redge_st"
         class="sprotty-edge transition"
         style="fill:none;stroke:rgb(48, 48, 48);stroke-linejoin:round;">
        <g
           id="g41">
          <path
             d=" M387.9092617034912,214.83333206176758 C387.9092617034912,214.83333206176758 387.9092617034912,224.83333206176758 387.9092617034912,234.83333206176758"
             id="path40" />
          <path
             d=" M387.9092617034912,214.83333206176758 C387.9092617034912,214.83333206176758 387.9092617034912,224.83333206176758 387.9092617034912,234.83333206176758"
             class="clickable"
             id="path41" />
        </g>
        <path
           d="M 387.9092617034912,234.83333206176758 L 394.9092617034912,232.33333206176758 L 394.9092617034912,237.33333206176758 Z"
           transform="rotate(-90 387.9092617034912 234.83333206176758)"
           class="arrow"
           style="fill:rgb(48, 48, 48);stroke-linejoin:miter;stroke-miterlimit:2;"
           id="path42" />
      </g>
      <g
         id="sprotty_fsm$cr/state$wait4fedge_st_to_fsm$cr/state$shift_st"
         class="sprotty-edge transition"
         style="fill:none;stroke:rgb(48, 48, 48);stroke-linejoin:round;">
        <g
           id="g44">
          <path
             d=" M422.5467758178711,334.0555534362793 C422.5467758178711,334.0555534362793 422.4967758178711,344.0555534362793 422.0467758178711,354.0555534362793"
             id="path43" />
          <path
             d=" M422.5467758178711,334.0555534362793 C422.5467758178711,334.0555534362793 422.4967758178711,344.0555534362793 422.0467758178711,354.0555534362793"
             class="clickable"
             id="path44" />
        </g>
        <path
           d="M 422.0467758178711,354.0555534362793 L 429.0467758178711,351.5555534362793 L 429.0467758178711,356.5555534362793 Z"
           transform="rotate(-87.42342816973125 422.0467758178711 354.0555534362793)"
           class="arrow"
           style="fill:rgb(48, 48, 48);stroke-linejoin:miter;stroke-miterlimit:2;"
           id="path45" />
      </g>
      <g
         id="sprotty_fsm$cr/state$wait4redge_st_to_fsm$cr/state$wait4fedge_st"
         class="sprotty-edge transition"
         style="fill:none;stroke:rgb(48, 48, 48);stroke-linejoin:round;">
        <g
           id="g47">
          <path
             d=" M407.50185457865393,274.44444274902344 C407.50185457865393,274.44444274902344 421.04228369394934,284.44444274902344 422.5467758178711,294.44444274902344"
             id="path46" />
          <path
             d=" M407.50185457865393,274.44444274902344 C407.50185457865393,274.44444274902344 421.04228369394934,284.44444274902344 422.5467758178711,294.44444274902344"
             class="clickable"
             id="path47" />
        </g>
        <path
           d="M 422.5467758178711,294.44444274902344 L 429.5467758178711,291.94444274902344 L 429.5467758178711,296.94444274902344 Z"
           transform="rotate(-98.55593556253763 422.5467758178711 294.44444274902344)"
           class="arrow"
           style="fill:rgb(48, 48, 48);stroke-linejoin:miter;stroke-miterlimit:2;"
           id="path48" />
      </g>
      <g
         id="sprotty_fsm$cr/state$shift_st_to_fsm$cr/state$finish_st"
         class="sprotty-edge transition"
         style="fill:none;stroke:rgb(48, 48, 48);stroke-linejoin:round;">
        <g
           id="g50">
          <path
             d=" M422.0467758178711,393.66666412353516 C422.0467758178711,393.66666412353516 422.0467758178711,403.66666412353516 422.0467758178711,413.66666412353516"
             id="path49" />
          <path
             d=" M422.0467758178711,393.66666412353516 C422.0467758178711,393.66666412353516 422.0467758178711,403.66666412353516 422.0467758178711,413.66666412353516"
             class="clickable"
             id="path50" />
        </g>
        <path
           d="M 422.0467758178711,413.66666412353516 L 429.0467758178711,411.16666412353516 L 429.0467758178711,416.16666412353516 Z"
           transform="rotate(-90 422.0467758178711 413.66666412353516)"
           class="arrow"
           style="fill:rgb(48, 48, 48);stroke-linejoin:miter;stroke-miterlimit:2;"
           id="path51" />
      </g>
      <g
         id="sprotty_fsm$cr/state$shift_st_to_fsm$cr/state$delay_st"
         class="sprotty-edge transition"
         style="fill:none;stroke:rgb(48, 48, 48);stroke-linejoin:round;">
        <g
           id="g53">
          <path
             d=" M438.7837543487549,354.0555534362793 C490.82180404663086,344.0555534362793 490.8218040466308,339.05555343627924 490.8218040466308,332.4212942123413 C490.8218040466308,325.7870349884033 490.82180404663086,317.51851654052734 490.8218040466308,309.2499980926513 C490.8218040466308,300.9814796447754 490.8218040466308,292.7129611968994 490.82180404663086,278.6435168584188 C490.82180404663086,264.5740725199381 490.82180404663086,244.70370229085282 490.8218040466308,230.6342579523722 C490.8218040466308,216.5648136138916 490.8218040466308,208.29629516601562 490.8218040466308,200.02777671813962 C490.8218040466308,191.75925827026367 490.8218040466308,183.49073982238772 490.8218040466308,176.8564805984497 C490.8218040466308,170.22222137451172 490.82180404663086,165.22222137451172 444.31278673807776,155.22222137451172"
             id="path52" />
          <path
             d=" M438.7837543487549,354.0555534362793 C490.82180404663086,344.0555534362793 490.8218040466308,339.05555343627924 490.8218040466308,332.4212942123413 C490.8218040466308,325.7870349884033 490.82180404663086,317.51851654052734 490.8218040466308,309.2499980926513 C490.8218040466308,300.9814796447754 490.8218040466308,292.7129611968994 490.82180404663086,278.6435168584188 C490.82180404663086,264.5740725199381 490.82180404663086,244.70370229085282 490.8218040466308,230.6342579523722 C490.8218040466308,216.5648136138916 490.8218040466308,208.29629516601562 490.8218040466308,200.02777671813962 C490.8218040466308,191.75925827026367 490.8218040466308,183.49073982238772 490.8218040466308,176.8564805984497 C490.8218040466308,170.22222137451172 490.82180404663086,165.22222137451172 444.31278673807776,155.22222137451172"
             class="clickable"
             id="path53" />
        </g>
        <path
           d="M 444.31278673807776,155.22222137451172 L 451.31278673807776,152.72222137451172 L 451.31278673807776,157.72222137451172 Z"
           transform="rotate(12.134541073795562 444.31278673807776 155.22222137451172)"
           class="arrow"
           style="fill:rgb(48, 48, 48);stroke-linejoin:miter;stroke-miterlimit:2;"
           id="path54" />
      </g>
      <g
         id="sprotty_fsm$cr/state$shift_st_to_fsm$cr/state$wait4redge_st"
         class="sprotty-edge transition"
         style="fill:none;stroke:rgb(48, 48, 48);stroke-linejoin:round;">
        <g
           id="g56">
          <path
             d=" M405.3097972869873,354.0555534362793 C353.2717475891113,344.0555534362793 353.2717475891113,339.0555534362793 353.2717475891113,333.2546275456746 C353.2717475891113,327.45370165506995 353.2717475891113,320.85184987386066 353.2717475891113,314.24999809265137 C353.2717475891113,307.648146311442 353.2717475891113,301.04629453023273 353.2717475891113,295.24536863962805 C353.2717475891113,289.44444274902344 353.2717475891113,284.44444274902344 368.31666882832843,274.44444274902344"
             id="path55" />
          <path
             d=" M405.3097972869873,354.0555534362793 C353.2717475891113,344.0555534362793 353.2717475891113,339.0555534362793 353.2717475891113,333.2546275456746 C353.2717475891113,327.45370165506995 353.2717475891113,320.85184987386066 353.2717475891113,314.24999809265137 C353.2717475891113,307.648146311442 353.2717475891113,301.04629453023273 353.2717475891113,295.24536863962805 C353.2717475891113,289.44444274902344 353.2717475891113,284.44444274902344 368.31666882832843,274.44444274902344"
             class="clickable"
             id="path56" />
        </g>
        <path
           d="M 368.31666882832843,274.44444274902344 L 375.31666882832843,271.94444274902344 L 375.31666882832843,276.94444274902344 Z"
           transform="rotate(146.3889623388258 368.31666882832843 274.44444274902344)"
           class="arrow"
           style="fill:rgb(48, 48, 48);stroke-linejoin:miter;stroke-miterlimit:2;"
           id="path57" />
      </g>
      <g
         id="sprotty_fsm$cr/state$finish_st_to_fsm$cr/state$update_st"
         class="sprotty-edge transition"
         style="fill:none;stroke:rgb(48, 48, 48);stroke-linejoin:round;">
        <g
           id="g59">
          <path
             d=" M422.0467758178711,453.277774810791 C422.0467758178711,453.277774810791 412.082479540507,463.277774810791 322.4038130442301,473.277774810791"
             id="path58" />
          <path
             d=" M422.0467758178711,453.277774810791 C422.0467758178711,453.277774810791 412.082479540507,463.277774810791 322.4038130442301,473.277774810791"
             class="clickable"
             id="path59" />
        </g>
        <path
           d="M 322.4038130442301,473.277774810791 L 329.4038130442301,470.777774810791 L 329.4038130442301,475.777774810791 Z"
           transform="rotate(-6.362723715569908 322.4038130442301 473.277774810791)"
           class="arrow"
           style="fill:rgb(48, 48, 48);stroke-linejoin:miter;stroke-miterlimit:2;"
           id="path60" />
      </g>
      <g
         id="sprotty_fsm$cr/state$update_st_to_fsm$cr/state$idle_st"
         class="sprotty-edge transition"
         style="fill:none;stroke:rgb(48, 48, 48);stroke-linejoin:round;">
        <g
           id="g62">
          <path
             d=" M293.367644627889,473.277774810791 C203.7924861907959,463.277774810791 203.7924861907959,458.277774810791 203.7924861907959,447.5092563629151 C203.7924861907959,436.7407379150391 203.79248619079587,420.20370101928717 203.79248619079587,406.9675900141399 C203.79248619079587,393.73147900899255 203.79248619079587,383.79629389444995 203.79248619079587,373.8611087799072 C203.79248619079587,363.92592366536456 203.79248619079587,353.99073855082196 203.7924861907959,339.08796087900794 C203.7924861907959,324.185183207194 203.79248619079587,304.3148129781087 203.7924861907959,289.4120353062947 C203.7924861907959,274.5092576344808 203.7924861907959,264.57407251993817 203.7924861907959,254.63888740539554 C203.7924861907959,244.7037022908529 203.7924861907959,234.76851717631024 203.7924861907959,219.86573950449622 C203.7924861907959,204.96296183268225 203.7924861907959,185.092591603597 203.7924861907959,169.35648059844968 C203.7924861907959,153.6203695933024 203.7924861907959,142.0185178120931 203.7924861907959,127.51620308558148 C203.7924861907959,113.01388835906982 203.7924861907959,95.61111068725586 203.79248619079587,75.61111068725586"
             id="path61" />
          <path
             d=" M293.367644627889,473.277774810791 C203.7924861907959,463.277774810791 203.7924861907959,458.277774810791 203.7924861907959,447.5092563629151 C203.7924861907959,436.7407379150391 203.79248619079587,420.20370101928717 203.79248619079587,406.9675900141399 C203.79248619079587,393.73147900899255 203.79248619079587,383.79629389444995 203.79248619079587,373.8611087799072 C203.79248619079587,363.92592366536456 203.79248619079587,353.99073855082196 203.7924861907959,339.08796087900794 C203.7924861907959,324.185183207194 203.79248619079587,304.3148129781087 203.7924861907959,289.4120353062947 C203.7924861907959,274.5092576344808 203.7924861907959,264.57407251993817 203.7924861907959,254.63888740539554 C203.7924861907959,244.7037022908529 203.7924861907959,234.76851717631024 203.7924861907959,219.86573950449622 C203.7924861907959,204.96296183268225 203.7924861907959,185.092591603597 203.7924861907959,169.35648059844968 C203.7924861907959,153.6203695933024 203.7924861907959,142.0185178120931 203.7924861907959,127.51620308558148 C203.7924861907959,113.01388835906982 203.7924861907959,95.61111068725586 203.79248619079587,75.61111068725586"
             class="clickable"
             id="path62" />
        </g>
        <path
           d="M 203.79248619079587,75.61111068725586 L 210.79248619079587,73.11111068725586 L 210.79248619079587,78.11111068725586 Z"
           transform="rotate(89.99999999999993 203.79248619079587 75.61111068725586)"
           class="arrow"
           style="fill:rgb(48, 48, 48);stroke-linejoin:miter;stroke-miterlimit:2;"
           id="path63" />
      </g>
    </g>
  </g>
</svg>
